# Export of 
# from Aaro4130 OBJ Exporter v2.0
mtllib ConeHexagon.mtl
g ConeHexagon_0
v 0.4330127 -0.5 -0.25
v -4.371139E-08 -0.5000001 -0.5
v -0.4330127 -0.5 -0.2499999
v 0.4330127 -0.4999999 0.25
v -0.4330127 -0.5 0.25
v 0 -0.5 0.5000001
v 0 0.5 -2.980232E-08
v 0.4330127 -0.4999999 0.25
v 0 -0.5 0.5000001
v 0 0.5 -2.980232E-08
v 0.4330127 -0.5 -0.25
v 0.4330127 -0.4999999 0.25
v 0 0.5 -2.980232E-08
v -4.371139E-08 -0.5000001 -0.5
v 0.4330127 -0.5 -0.25
v 0 0.5 -2.980232E-08
v -0.4330127 -0.5 -0.2499999
v -4.371139E-08 -0.5000001 -0.5
v 0 0.5 -2.980232E-08
v 0 -0.5 0.5000001
v -0.4330127 -0.5 0.25
v 0 0.5 -2.980232E-08
v -0.4330127 -0.5 0.25
v -0.4330127 -0.5 -0.2499999
vn 0 -0.5773503 0
vn 0 -0.5773503 0
vn 0 -0.5773503 0
vn 0 -0.5773503 0
vn 0 -0.5773503 0
vn 0 -0.5773503 0
vn 0.2649064 0.2294158 0.4588315
vn 0.2649064 0.2294158 0.4588315
vn 0.2649064 0.2294158 0.4588315
vn 0.5298129 0.2294157 0
vn 0.5298129 0.2294157 0
vn 0.5298129 0.2294157 0
vn 0.2649064 0.2294157 -0.4588315
vn 0.2649064 0.2294157 -0.4588315
vn 0.2649064 0.2294157 -0.4588315
vn -0.2649065 0.2294157 -0.4588315
vn -0.2649065 0.2294157 -0.4588315
vn -0.2649065 0.2294157 -0.4588315
vn -0.2649065 0.2294158 0.4588315
vn -0.2649065 0.2294158 0.4588315
vn -0.2649065 0.2294158 0.4588315
vn -0.5298129 0.2294158 0
vn -0.5298129 0.2294158 0
vn -0.5298129 0.2294158 0
vt 1 0.25
vt 0.4999999 0
vt 0 0.2500001
vt 1 0.75
vt 0 0.75
vt 0.5 1
vt 0.5206156 1
vt 0.6733804 0
vt 0.5070286 0
vt 0.5206156 1
vt 0.8351693 0
vt 0.6733804 0
vt 0.5206156 1
vt 1 0
vt 0.8351693 0
vt 0.5223084 1
vt 0.1612282 0
vt 7.450581E-09 9.313226E-10
vt 0.5206156 1
vt 0.5070286 0
vt 0.3301443 0
vt 0.5206156 1
vt 0.3301443 0
vt 0.1596293 0
usemtl Standard
f 3/3/3 2/2/2 1/1/1
f 1/1/1 4/4/4 3/3/3
f 4/4/4 5/5/5 3/3/3
f 4/4/4 6/6/6 5/5/5
f 9/9/9 8/8/8 7/7/7
f 12/12/12 11/11/11 10/10/10
f 15/15/15 14/14/14 13/13/13
f 18/18/18 17/17/17 16/16/16
f 21/21/21 20/20/20 19/19/19
f 24/24/24 23/23/23 22/22/22
