# Export of 
# from Aaro4130 OBJ Exporter v2.0
mtllib ConePentagon.mtl
g ConePentagon_0
v 0.4755283 -0.5 0.1545085
v 0.2938926 -0.5000001 -0.4045085
v -0.2938927 -0.5000001 -0.4045085
v -0.4755282 -0.5 0.1545086
v -5.960465E-09 -0.5 0.5000001
v 1.490116E-08 0.5 0.04774572
v 0.4755283 -0.5 0.1545085
v -5.960465E-09 -0.5 0.5000001
v 1.490116E-08 0.5 0.04774572
v 0.2938926 -0.5000001 -0.4045085
v 0.4755283 -0.5 0.1545085
v 1.490116E-08 0.5 0.04774572
v -0.2938927 -0.5000001 -0.4045085
v 0.2938926 -0.5000001 -0.4045085
v 1.490116E-08 0.5 0.04774572
v -5.960465E-09 -0.5 0.5000001
v -0.4755282 -0.5 0.1545086
v 1.490116E-08 0.5 0.04774572
v -0.4755282 -0.5 0.1545086
v -0.2938927 -0.5000001 -0.4045085
vn 0 -0.5773503 0
vn 0 -0.5773503 0
vn 0 -0.5773503 0
vn 0 -0.5773503 0
vn 0 -0.5773503 0
vn 0.318696 0.1983802 0.4386474
vn 0.318696 0.1983802 0.4386474
vn 0.318696 0.1983802 0.4386474
vn 0.5063869 0.223235 -0.1645351
vn 0.5063869 0.223235 -0.1645351
vn 0.5063869 0.223235 -0.1645351
vn 0 0.2379099 -0.5260534
vn 0 0.2379099 -0.5260534
vn 0 0.2379099 -0.5260534
vn -0.318696 0.1983802 0.4386474
vn -0.318696 0.1983802 0.4386474
vn -0.318696 0.1983802 0.4386474
vn -0.5063869 0.223235 -0.164535
vn -0.5063869 0.223235 -0.164535
vn -0.5063869 0.223235 -0.164535
vt 1 0.6180341
vt 0.809017 0
vt 0.1909829 0
vt 0 0.6180341
vt 0.5 1
vt 0.4994386 1
vt 0.8139963 -1.490116E-08
vt 0.6317382 7.450581E-09
vt 0.4994386 1
vt 1 7.450581E-09
vt 0.8139963 -1.490116E-08
vt 0.4994386 1
vt 0.2097301 0
vt 0 7.450581E-09
vt 0.4994386 1
vt 0.6317382 7.450581E-09
vt 0.4332058 0
vt 0.4994386 1
vt 0.4332058 0
vt 0.2097301 0
usemtl Standard
f 3/3/3 2/2/2 1/1/1
f 1/1/1 4/4/4 3/3/3
f 1/1/1 5/5/5 4/4/4
f 8/8/8 7/7/7 6/6/6
f 11/11/11 10/10/10 9/9/9
f 14/14/14 13/13/13 12/12/12
f 17/17/17 16/16/16 15/15/15
f 20/20/20 19/19/19 18/18/18
