# Export of 
# from Aaro4130 OBJ Exporter v2.0
mtllib PrismHexagon.mtl
g PrismHexagon_0
v -0.4999106 0.5 -0.2500001
v -5.108615E-05 0.4999999 -0.5000001
v 0.4999616 0.4999999 -0.25
v -0.4999106 0.5 0.2499999
v 0.4999616 0.5 0.2499999
v -5.108615E-05 0.5000001 0.4999999
v 0.4999616 -0.5 -0.2499999
v -5.108615E-05 -0.5000001 -0.4999999
v -0.4999106 -0.5 -0.2499999
v 0.4999616 -0.4999999 0.25
v -0.4999106 -0.5 0.2500001
v -5.108615E-05 -0.4999999 0.5000001
v 0.4999616 0.4999999 -0.25
v -5.108615E-05 -0.5000001 -0.4999999
v 0.4999616 -0.5 -0.2499999
v -5.108615E-05 0.4999999 -0.5000001
v 0.4999616 0.5 0.2499999
v 0.4999616 -0.5 -0.2499999
v 0.4999616 -0.4999999 0.25
v 0.4999616 0.4999999 -0.25
v -5.108615E-05 0.5000001 0.4999999
v 0.4999616 -0.4999999 0.25
v -5.108615E-05 -0.4999999 0.5000001
v 0.4999616 0.5 0.2499999
v -0.4999106 0.5 0.2499999
v -5.108615E-05 -0.4999999 0.5000001
v -0.4999106 -0.5 0.2500001
v -5.108615E-05 0.5000001 0.4999999
v -0.4999106 0.5 -0.2500001
v -0.4999106 -0.5 0.2500001
v -0.4999106 -0.5 -0.2499999
v -0.4999106 0.5 0.2499999
v -5.108615E-05 0.4999999 -0.5000001
v -0.4999106 -0.5 -0.2499999
v -5.108615E-05 -0.5000001 -0.4999999
v -0.4999106 0.5 -0.2500001
vn 0 0.5773503 0
vn 0 0.5773503 0
vn 0 0.5773503 0
vn 0 0.5773503 0
vn 0 0.5773503 0
vn 0 0.5773503 0
vn 0 -0.5773503 0
vn 0 -0.5773503 0
vn 0 -0.5773503 0
vn 0 -0.5773503 0
vn 0 -0.5773503 0
vn 0 -0.5773503 0
vn 0.2581937 0 -0.5164004
vn 0.2581937 0 -0.5164004
vn 0.2581937 0 -0.5164004
vn 0.2581937 0 -0.5164004
vn 0.5773503 0 0
vn 0.5773503 0 0
vn 0.5773503 0 0
vn 0.5773503 0 0
vn 0.2581937 0 0.5164004
vn 0.2581937 0 0.5164004
vn 0.2581937 0 0.5164004
vn 0.2581937 0 0.5164004
vn -0.2582569 0 0.5163687
vn -0.2582569 0 0.5163687
vn -0.2582569 0 0.5163687
vn -0.2582569 0 0.5163687
vn -0.5773503 0 0
vn -0.5773503 0 0
vn -0.5773503 0 0
vn -0.5773503 0 0
vn -0.258257 0 -0.5163687
vn -0.258257 0 -0.5163687
vn -0.258257 0 -0.5163687
vn -0.258257 0 -0.5163687
vt 0 0.25
vt 0.4999234 0
vt 1 0.2500001
vt 0 0.75
vt 1 0.7499999
vt 0.4999234 1
vt 1 0.25
vt 0.4999234 0
vt 0 0.25
vt 1 0.7499999
vt 0 0.7500001
vt 0.4999234 1
vt 0 0
vt 1 1
vt 1 0
vt 3.72529E-09 1
vt 0 0
vt 1 1
vt 1 0
vt 3.72529E-09 1
vt 0 0
vt 1 1
vt 1 0
vt 3.72529E-09 1
vt 0 0
vt 1 1
vt 1 0
vt 3.72529E-09 1
vt 0 0
vt 1 1
vt 1 0
vt 3.72529E-09 1
vt 0 0
vt 1 1
vt 1 0
vt 3.72529E-09 1
usemtl Standard
f 3/3/3 2/2/2 1/1/1
f 1/1/1 4/4/4 3/3/3
f 4/4/4 5/5/5 3/3/3
f 4/4/4 6/6/6 5/5/5
f 9/9/9 8/8/8 7/7/7
f 7/7/7 10/10/10 9/9/9
f 10/10/10 11/11/11 9/9/9
f 10/10/10 12/12/12 11/11/11
f 15/15/15 14/14/14 13/13/13
f 14/14/14 16/16/16 13/13/13
f 19/19/19 18/18/18 17/17/17
f 18/18/18 20/20/20 17/17/17
f 23/23/23 22/22/22 21/21/21
f 22/22/22 24/24/24 21/21/21
f 27/27/27 26/26/26 25/25/25
f 26/26/26 28/28/28 25/25/25
f 31/31/31 30/30/30 29/29/29
f 30/30/30 32/32/32 29/29/29
f 35/35/35 34/34/34 33/33/33
f 34/34/34 36/36/36 33/33/33
