# Export of 
# from Aaro4130 OBJ Exporter v2.0
mtllib Cone.mtl
g Cone_0
v 0.1545085 -0.5000001 -0.4755287
v -9.363028E-08 -0.5000001 -0.5000004
v -0.1545087 -0.5000001 -0.4755286
v 0.2938927 -0.5000001 -0.4045089
v -0.2938928 -0.5000001 -0.4045087
v 0.4045086 -0.5 -0.293893
v -0.4045086 -0.5 -0.2938928
v 0.4755283 -0.5 -0.1545089
v -0.4755283 -0.5 -0.1545085
v 0.5000001 -0.5 -3.357722E-07
v -0.4999999 -0.5000001 1.112627E-07
v 0.4755284 -0.5 0.1545081
v -0.475528 -0.5 0.1545087
v 0.4045086 -0.4999999 0.2938923
v -0.4045081 -0.5 0.2938928
v 0.2938927 -0.4999999 0.4045081
v -0.293892 -0.4999999 0.4045085
v 0.1545086 -0.4999999 0.4755279
v -0.1545077 -0.4999999 0.4755281
v 6.92904E-08 -0.4999999 0.4999997
v 8.940697E-08 0.5000001 -5.582975E-07
v -0.293892 -0.4999999 0.4045085
v -0.4045081 -0.5 0.2938928
v -0.1545077 -0.4999999 0.4755281
v 6.92904E-08 -0.4999999 0.4999997
v -0.475528 -0.5 0.1545087
v -0.4999999 -0.5000001 1.112627E-07
v -0.4755283 -0.5 -0.1545085
v -0.4045086 -0.5 -0.2938928
v -0.2938928 -0.5000001 -0.4045087
v -0.1545087 -0.5000001 -0.4755286
v -9.363028E-08 -0.5000001 -0.5000004
v 0.1545085 -0.5000001 -0.4755287
v 0.2938927 -0.5000001 -0.4045089
v 0.4045086 -0.5 -0.293893
v 0.4755283 -0.5 -0.1545089
v 0.5000001 -0.5 -3.357722E-07
v 0.4755284 -0.5 0.1545081
v 0.4045086 -0.4999999 0.2938923
v 0.2938927 -0.4999999 0.4045081
v 0.1545086 -0.4999999 0.4755279
vn 0 -0.5773503 0
vn 0 -0.5773503 0
vn 0 -0.5773503 0
vn 0 -0.5773503 0
vn 0 -0.5773503 0
vn 0 -0.5773503 0
vn 0 -0.5773503 0
vn 0 -0.5773503 0
vn 0 -0.5773503 0
vn 0 -0.5773503 0
vn 0 -0.5773503 0
vn 0 -0.5773503 0
vn 0 -0.5773503 0
vn 0 -0.5773503 0
vn 0 -0.5773503 0
vn 0 -0.5773503 0
vn 0 -0.5773503 0
vn 0 -0.5773503 0
vn 0 -0.5773503 0
vn 0 -0.5773503 0
vn 0 0.5773503 0
vn -0.3035305 0.258199 0.4177749
vn -0.4177742 0.2581989 0.3035314
vn -0.1595751 0.258199 0.4911236
vn 0 0.2581989 0.5163977
vn -0.4911233 0.2581989 0.1595761
vn -0.5163978 0.2581989 0
vn -0.4911237 0.2581989 -0.1595751
vn -0.4177748 0.2581989 -0.3035308
vn -0.3035312 0.2581987 -0.4177745
vn -0.1595759 0.2581988 -0.4911234
vn 0 0.2581988 -0.5163978
vn 0.1595755 0.2581988 -0.4911236
vn 0.3035309 0.2581988 -0.4177746
vn 0.4177746 0.2581988 -0.3035311
vn 0.4911235 0.2581989 -0.1595756
vn 0.5163978 0.2581989 0
vn 0.4911235 0.2581989 0.1595756
vn 0.4177746 0.2581989 0.3035309
vn 0.303531 0.258199 0.4177746
vn 0.1595757 0.2581989 0.4911234
vt 0.2915876 0.6200545
vt 0.2314259 0.6005067
vt 0.168168 0.6005066
vt 0.3427642 0.6572366
vt 0.1080065 0.6200542
vt 0.379946 0.7084131
vt 0.05682986 0.657236
vt 0.3994935 0.7685745
vt 0.01964779 0.7084126
vt 0.3994935 0.8318321
vt 9.996003E-05 0.7685745
vt 0.3799459 0.8919936
vt 9.996003E-05 0.8318323
vt 0.342764 0.9431702
vt 0.01964779 0.891994
vt 0.2915875 0.9803521
vt 0.05682983 0.9431706
vt 0.2314259 0.9998999
vt 0.1080065 0.9803525
vt 0.1681681 0.9999
vt 0.3002034 0.3002033
vt 0.6003066 0.3477356
vt 0.6003067 0.252672
vt 0.5709303 0.4381461
vt 0.5150538 0.5150535
vt 0.5709307 0.1622613
vt 0.5150537 0.08535305
vt 0.4381453 0.02947604
vt 0.3477347 9.996003E-05
vt 0.2526717 9.996003E-05
vt 0.1622608 0.02947628
vt 0.08535286 0.08535331
vt 0.0294761 0.1622612
vt 9.996003E-05 0.252672
vt 0.0001000698 0.3477351
vt 0.02947623 0.4381456
vt 0.08535321 0.5150537
vt 0.1622613 0.5709306
vt 0.2526719 0.6003067
vt 0.3477349 0.6003067
vt 0.4381455 0.5709305
usemtl Standard
f 3/3/3 2/2/2 1/1/1
f 1/1/1 4/4/4 3/3/3
f 4/4/4 5/5/5 3/3/3
f 4/4/4 6/6/6 5/5/5
f 6/6/6 7/7/7 5/5/5
f 6/6/6 8/8/8 7/7/7
f 8/8/8 9/9/9 7/7/7
f 8/8/8 10/10/10 9/9/9
f 10/10/10 11/11/11 9/9/9
f 10/10/10 12/12/12 11/11/11
f 12/12/12 13/13/13 11/11/11
f 12/12/12 14/14/14 13/13/13
f 14/14/14 15/15/15 13/13/13
f 14/14/14 16/16/16 15/15/15
f 16/16/16 17/17/17 15/15/15
f 16/16/16 18/18/18 17/17/17
f 18/18/18 19/19/19 17/17/17
f 18/18/18 20/20/20 19/19/19
f 23/23/23 22/22/22 21/21/21
f 22/22/22 24/24/24 21/21/21
f 24/24/24 25/25/25 21/21/21
f 26/26/26 23/23/23 21/21/21
f 27/27/27 26/26/26 21/21/21
f 28/28/28 27/27/27 21/21/21
f 29/29/29 28/28/28 21/21/21
f 30/30/30 29/29/29 21/21/21
f 31/31/31 30/30/30 21/21/21
f 32/32/32 31/31/31 21/21/21
f 33/33/33 32/32/32 21/21/21
f 34/34/34 33/33/33 21/21/21
f 35/35/35 34/34/34 21/21/21
f 36/36/36 35/35/35 21/21/21
f 37/37/37 36/36/36 21/21/21
f 38/38/38 37/37/37 21/21/21
f 39/39/39 38/38/38 21/21/21
f 40/40/40 39/39/39 21/21/21
f 41/41/41 40/40/40 21/21/21
f 25/25/25 41/41/41 21/21/21
