# Export of 
# from Aaro4130 OBJ Exporter v2.0
mtllib CubeTube.mtl
g CubeTube_0
v -0.5 -0.5000001 -0.5
v -0.5 0.5000001 0.5
v -0.5 -0.5 0.5000001
v -0.5 0.5 -0.5000001
v -0.5 -0.5 0.5000001
v 0.5 0.5000001 0.5
v 0.5 -0.5 0.5000001
v -0.5 0.5000001 0.5
v 0.5 -0.5 0.5000001
v 0.5 0.5 -0.5000001
v 0.5 -0.5000001 -0.5
v 0.5 0.5000001 0.5
v 0.5 -0.5000001 -0.5
v -0.5 0.5 -0.5000001
v -0.5 -0.5000001 -0.5
v 0.5 0.5 -0.5000001
v -0.5 -0.5000001 -0.5
v 0.25 -0.5 -0.25
v 0.5 -0.5000001 -0.5
v -0.25 -0.5 -0.25
v 0.25 -0.5 0.25
v 0.5 -0.5 0.5000001
v -0.25 -0.5 0.25
v -0.5 -0.5 0.5000001
v 0.5 0.5 -0.5000001
v -0.25 0.5 -0.25
v -0.5 0.5 -0.5000001
v 0.25 0.5 -0.25
v 0.5 0.5000001 0.5
v 0.25 0.5 0.25
v -0.5 0.5000001 0.5
v -0.25 0.5 0.25
v -0.25 -0.5 0.25
v 0.25 0.5 0.25
v -0.25 0.5 0.25
v 0.25 -0.5 0.25
v -0.25 -0.5 -0.25
v -0.25 0.5 0.25
v -0.25 0.5 -0.25
v -0.25 -0.5 0.25
v 0.25 -0.5 0.25
v 0.25 0.5 -0.25
v 0.25 0.5 0.25
v 0.25 -0.5 -0.25
v 0.25 -0.5 -0.25
v -0.25 0.5 -0.25
v 0.25 0.5 -0.25
v -0.25 -0.5 -0.25
vn -0.5773503 0 0
vn -0.5773503 0 0
vn -0.5773503 0 0
vn -0.5773503 0 0
vn 0 0 0.5773503
vn 0 0 0.5773503
vn 0 0 0.5773503
vn 0 0 0.5773503
vn 0.5773503 0 0
vn 0.5773503 0 0
vn 0.5773503 0 0
vn 0.5773503 0 0
vn 0 0 -0.5773503
vn 0 0 -0.5773503
vn 0 0 -0.5773503
vn 0 0 -0.5773503
vn 0 -0.5773503 0
vn 0 -0.5773503 0
vn 0 -0.5773503 0
vn 0 -0.5773503 0
vn 0 -0.5773503 0
vn 0 -0.5773503 0
vn 0 -0.5773503 0
vn 0 -0.5773503 0
vn 0 0.5773503 0
vn 0 0.5773503 0
vn 0 0.5773503 0
vn 0 0.5773503 0
vn 0 0.5773503 0
vn 0 0.5773503 0
vn 0 0.5773503 0
vn 0 0.5773503 0
vn 0 0 -0.5773503
vn 0 0 -0.5773503
vn 0 0 -0.5773503
vn 0 0 -0.5773503
vn 0.5773503 0 0
vn 0.5773503 0 0
vn 0.5773503 0 0
vn 0.5773503 0 0
vn -0.5773503 0 0
vn -0.5773503 0 0
vn -0.5773503 0 0
vn -0.5773503 0 0
vn 0 0 0.5773503
vn 0 0 0.5773503
vn 0 0 0.5773503
vn 0 0 0.5773503
vt 0 5.960464E-08
vt 1 1
vt 5.960464E-08 1
vt 1 0
vt -2.793968E-09 0
vt 1 1
vt 1 0
vt -2.793968E-09 0.9999999
vt -2.793968E-09 0.9999999
vt 1 0
vt -3.259629E-08 0
vt 1 1
vt 1 0
vt -2.793968E-09 0.9999999
vt -2.793968E-09 0
vt 1 1
vt 0 0
vt 0.75 0.2500001
vt 1 0
vt 0.25 0.2500001
vt 0.75 0.75
vt 1 1
vt 0.25 0.75
vt 0 1
vt 1 0
vt 0.25 0.2500001
vt 0 0
vt 0.75 0.2500001
vt 1 1
vt 0.75 0.7500001
vt 0 1
vt 0.25 0.7500001
vt 0 0.9999999
vt 1 5.960464E-08
vt 1.490116E-07 0
vt 0.9999999 1
vt 0 1.192093E-07
vt 1 1
vt 1 0
vt 0 1
vt 0 1
vt 1 0
vt 1 1
vt 0 1.192093E-07
vt 1 0
vt 0 1
vt 1 1
vt 0 0
usemtl Standard
f 3/3/3 2/2/2 1/1/1
f 2/2/2 4/4/4 1/1/1
f 7/7/7 6/6/6 5/5/5
f 6/6/6 8/8/8 5/5/5
f 11/11/11 10/10/10 9/9/9
f 10/10/10 12/12/12 9/9/9
f 15/15/15 14/14/14 13/13/13
f 14/14/14 16/16/16 13/13/13
f 19/19/19 18/18/18 17/17/17
f 18/18/18 20/20/20 17/17/17
f 21/21/21 18/18/18 19/19/19
f 22/22/22 21/21/21 19/19/19
f 23/23/23 21/21/21 22/22/22
f 24/24/24 23/23/23 22/22/22
f 17/17/17 20/20/20 24/24/24
f 20/20/20 23/23/23 24/24/24
f 27/27/27 26/26/26 25/25/25
f 26/26/26 28/28/28 25/25/25
f 25/25/25 28/28/28 29/29/29
f 28/28/28 30/30/30 29/29/29
f 29/29/29 30/30/30 31/31/31
f 30/30/30 32/32/32 31/31/31
f 31/31/31 32/32/32 27/27/27
f 32/32/32 26/26/26 27/27/27
f 35/35/35 34/34/34 33/33/33
f 34/34/34 36/36/36 33/33/33
f 39/39/39 38/38/38 37/37/37
f 38/38/38 40/40/40 37/37/37
f 43/43/43 42/42/42 41/41/41
f 42/42/42 44/44/44 41/41/41
f 47/47/47 46/46/46 45/45/45
f 46/46/46 48/48/48 45/45/45
