# Export of 
# from Aaro4130 OBJ Exporter v2.0
mtllib CubeCorner.mtl
g CubeCorner_0
v 2.235174E-08 0.5000001 0.5000002
v -0.5 -0.5 0.5000003
v -0.5 0.5000001 0.5000002
v 2.235174E-08 -0.5 0.5000003
v 0.5 0.5000001 0.5000002
v 0.5 -0.5 0.5000003
v 2.235174E-08 -0.5 -0.4999998
v -0.5 0.5000001 -0.4999998
v -0.5 -0.5 -0.4999998
v 2.235174E-08 0.5000001 -0.4999998
v 2.235174E-08 0.5000001 2.161105E-07
v 0.5 0.5000001 0.5000002
v 2.235174E-08 0.5000001 0.5000002
v 0.5 0.5000001 2.161105E-07
v -0.5 0.5000001 2.161105E-07
v -0.5 0.5000001 -0.4999998
v 2.235174E-08 0.5000001 -0.4999998
v -0.5 0.5000001 0.5000002
v 2.235174E-08 -0.5 2.980669E-07
v -0.5 -0.5 0.5000003
v 2.235174E-08 -0.5 0.5000003
v -0.5 -0.5 2.980669E-07
v 2.235174E-08 -0.5 -0.4999998
v -0.5 -0.5 -0.4999998
v 0.5 -0.5 2.980669E-07
v 0.5 -0.5 0.5000003
v 0.5 0.5000001 2.161105E-07
v 0.5 -0.5 0.5000003
v 0.5 0.5000001 0.5000002
v 0.5 -0.5 2.980669E-07
v -0.5 -0.5 2.980669E-07
v -0.5 0.5000001 0.5000002
v -0.5 -0.5 0.5000003
v -0.5 0.5000001 2.161105E-07
v -0.5 -0.5 -0.4999998
v -0.5 0.5000001 -0.4999998
v 0.5 -0.5 2.980669E-07
v 2.235174E-08 0.5000001 2.161105E-07
v 2.235174E-08 -0.5 2.980669E-07
v 0.5 0.5000001 2.161105E-07
v 2.235174E-08 -0.5 -0.4999998
v 2.235174E-08 0.5000001 2.161105E-07
v 2.235174E-08 0.5000001 -0.4999998
v 2.235174E-08 -0.5 2.980669E-07
vn 0 0 0.5773503
vn 0 0 0.5773503
vn 0 0 0.5773503
vn 0 0 0.5773503
vn 0 0 0.5773503
vn 0 0 0.5773503
vn 0 0 -0.5773503
vn 0 0 -0.5773503
vn 0 0 -0.5773503
vn 0 0 -0.5773503
vn 0 0.5773503 0
vn 0 0.5773503 0
vn 0 0.5773503 0
vn 0 0.5773503 0
vn 0 0.5773503 0
vn 0 0.5773503 0
vn 0 0.5773503 0
vn 0 0.5773503 0
vn 0 -0.5773503 0
vn 0 -0.5773503 0
vn 0 -0.5773503 0
vn 0 -0.5773503 0
vn 0 -0.5773503 0
vn 0 -0.5773503 0
vn 0 -0.5773503 0
vn 0 -0.5773503 0
vn 0.5773503 0 0
vn 0.5773503 0 0
vn 0.5773503 0 0
vn 0.5773503 0 0
vn -0.5773503 0 0
vn -0.5773503 0 0
vn -0.5773503 0 0
vn -0.5773503 0 0
vn -0.5773503 0 0
vn -0.5773503 0 0
vn 0 0 -0.5773503
vn 0 0 -0.5773503
vn 0 0 -0.5773503
vn 0 0 -0.5773503
vn 0.5773503 0 0
vn 0.5773503 0 0
vn 0.5773503 0 0
vn 0.5773503 0 0
vt 0.5 1
vt 0 0
vt 0 1
vt 0.5 0
vt 1 1
vt 1 0
vt 0.5000001 5.960463E-08
vt 1 0.9999999
vt 1 0
vt 0.5000002 0.9999999
vt 0.5 0.4999999
vt 1 1
vt 0.5 1
vt 1 0.4999999
vt 0 0.4999999
vt 0 0
vt 0.5 0
vt 0 1
vt 0.5 0.5000001
vt 0 1
vt 0.5 1
vt 0 0.5000001
vt 0.5 0
vt 0 0
vt 1 0.5000001
vt 1 1
vt 0.5000001 5.960463E-08
vt 0.9999999 1
vt 1 0
vt 0.5000001 0.9999999
vt 1 0.5
vt 0 0
vt 1 0
vt 0 0.5
vt 1 1
vt 0 1
vt 0.5000001 0.9999998
vt 0 1.192093E-07
vt 2.384185E-07 0.9999999
vt 0.4999999 0
vt 0.5000001 1.192093E-07
vt 0 0.9999999
vt 0.5000001 1
vt 1.490116E-07 0
usemtl Standard
f 3/3/3 2/2/2 1/1/1
f 2/2/2 4/4/4 1/1/1
f 5/5/5 1/1/1 4/4/4
f 6/6/6 5/5/5 4/4/4
f 9/9/9 8/8/8 7/7/7
f 8/8/8 10/10/10 7/7/7
f 13/13/13 12/12/12 11/11/11
f 12/12/12 14/14/14 11/11/11
f 13/13/13 11/11/11 15/15/15
f 15/15/15 11/11/11 16/16/16
f 11/11/11 17/17/17 16/16/16
f 18/18/18 13/13/13 15/15/15
f 21/21/21 20/20/20 19/19/19
f 20/20/20 22/22/22 19/19/19
f 19/19/19 22/22/22 23/23/23
f 22/22/22 24/24/24 23/23/23
f 21/21/21 19/19/19 25/25/25
f 26/26/26 21/21/21 25/25/25
f 29/29/29 28/28/28 27/27/27
f 28/28/28 30/30/30 27/27/27
f 33/33/33 32/32/32 31/31/31
f 32/32/32 34/34/34 31/31/31
f 35/35/35 31/31/31 34/34/34
f 36/36/36 35/35/35 34/34/34
f 39/39/39 38/38/38 37/37/37
f 38/38/38 40/40/40 37/37/37
f 43/43/43 42/42/42 41/41/41
f 42/42/42 44/44/44 41/41/41
