# Export of 
# from Aaro4130 OBJ Exporter v2.0
mtllib IcosphereSmall.mtl
g IcosphereSmall_0
v 0 -0.5 0
v -0.1381925 -0.2236075 0.4253199
v 0.3618 -0.2236075 0.26286
v 0.3618 -0.2236075 0.26286
v 0.3618 -0.2236075 -0.26286
v 0 -0.5 0
v 0 -0.5 0
v -0.4472125 -0.2236075 0
v -0.1381925 -0.2236075 0.4253199
v 0 -0.5 0
v -0.1381925 -0.2236075 -0.42532
v -0.4472125 -0.2236075 0
v 0 -0.5 0
v 0.3618 -0.2236075 -0.26286
v -0.1381925 -0.2236075 -0.42532
v 0.3618 -0.2236075 0.26286
v 0.4472125 0.2236075 -2.980232E-08
v 0.3618 -0.2236075 -0.26286
v -0.1381925 -0.2236075 0.4253199
v 0.1381925 0.2236075 0.42532
v 0.3618 -0.2236075 0.26286
v -0.4472125 -0.2236075 0
v -0.3618 0.2236075 0.26286
v -0.1381925 -0.2236075 0.4253199
v -0.1381925 -0.2236075 -0.42532
v -0.3618 0.2236075 -0.26286
v -0.4472125 -0.2236075 0
v 0.3618 -0.2236075 -0.26286
v 0.1381925 0.2236075 -0.42532
v -0.1381925 -0.2236075 -0.42532
v 0.3618 -0.2236075 0.26286
v 0.1381925 0.2236075 0.42532
v 0.4472125 0.2236075 -2.980232E-08
v -0.1381925 -0.2236075 0.4253199
v -0.3618 0.2236075 0.26286
v 0.1381925 0.2236075 0.42532
v -0.4472125 -0.2236075 0
v -0.3618 0.2236075 -0.26286
v -0.3618 0.2236075 0.26286
v -0.1381925 -0.2236075 -0.42532
v 0.1381925 0.2236075 -0.42532
v -0.3618 0.2236075 -0.26286
v 0.3618 -0.2236075 -0.26286
v 0.4472125 0.2236075 -2.980232E-08
v 0.1381925 0.2236075 -0.42532
v 0.1381925 0.2236075 0.42532
v 0 0.5 -5.960464E-08
v 0.4472125 0.2236075 -2.980232E-08
v -0.3618 0.2236075 0.26286
v 0 0.5 -5.960464E-08
v 0.1381925 0.2236075 0.42532
v -0.3618 0.2236075 -0.26286
v 0 0.5 -5.960464E-08
v -0.3618 0.2236075 0.26286
v 0.1381925 0.2236075 -0.42532
v 0 0.5 -5.960464E-08
v -0.3618 0.2236075 -0.26286
v 0.4472125 0.2236075 -2.980232E-08
v 0 0.5 -5.960464E-08
v 0.1381925 0.2236075 -0.42532
vn 0.1083089 -0.4587919 0.3333353
vn 0.1083089 -0.4587919 0.3333353
vn 0.1083089 -0.4587919 0.3333353
vn 0.3504889 -0.4587928 0
vn 0.3504889 -0.4587928 0
vn 0.3504889 -0.4587928 0
vn -0.2835495 -0.4587926 0.2060154
vn -0.2835495 -0.4587926 0.2060154
vn -0.2835495 -0.4587926 0.2060154
vn -0.2835495 -0.4587927 -0.2060153
vn -0.2835495 -0.4587927 -0.2060153
vn -0.2835495 -0.4587927 -0.2060153
vn 0.1083089 -0.458792 -0.3333353
vn 0.1083089 -0.458792 -0.3333353
vn 0.1083089 -0.458792 -0.3333353
vn 0.5671 -0.1083091 0
vn 0.5671 -0.1083091 0
vn 0.5671 -0.1083091 0
vn 0.1752463 -0.1083046 0.5393442
vn 0.1752463 -0.1083046 0.5393442
vn 0.1752463 -0.1083046 0.5393442
vn -0.4587909 -0.1083034 0.3333386
vn -0.4587909 -0.1083034 0.3333386
vn -0.4587909 -0.1083034 0.3333386
vn -0.4587909 -0.1083034 -0.3333386
vn -0.4587909 -0.1083034 -0.3333386
vn -0.4587909 -0.1083034 -0.3333386
vn 0.1752464 -0.1083047 -0.5393441
vn 0.1752464 -0.1083047 -0.5393441
vn 0.1752464 -0.1083047 -0.5393441
vn 0.458791 0.1083034 0.3333385
vn 0.458791 0.1083034 0.3333385
vn 0.458791 0.1083034 0.3333385
vn -0.1752463 0.1083046 0.5393443
vn -0.1752463 0.1083046 0.5393443
vn -0.1752463 0.1083046 0.5393443
vn -0.5671 0.1083091 0
vn -0.5671 0.1083091 0
vn -0.5671 0.1083091 0
vn -0.1752464 0.1083047 -0.5393441
vn -0.1752464 0.1083047 -0.5393441
vn -0.1752464 0.1083047 -0.5393441
vn 0.4587909 0.1083034 -0.3333386
vn 0.4587909 0.1083034 -0.3333386
vn 0.4587909 0.1083034 -0.3333386
vn 0.2835494 0.4587927 0.2060153
vn 0.2835494 0.4587927 0.2060153
vn 0.2835494 0.4587927 0.2060153
vn -0.1083089 0.458792 0.3333353
vn -0.1083089 0.458792 0.3333353
vn -0.1083089 0.458792 0.3333353
vn -0.3504889 0.4587928 0
vn -0.3504889 0.4587928 0
vn -0.3504889 0.4587928 0
vn -0.1083089 0.458792 -0.3333353
vn -0.1083089 0.458792 -0.3333353
vn -0.1083089 0.458792 -0.3333353
vn 0.2835495 0.4587926 -0.2060154
vn 0.2835495 0.4587926 -0.2060154
vn 0.2835495 0.4587926 -0.2060154
vt 0.1619399 0.5000002
vt 0.08097195 1
vt 0.310726 0.8090144
vt 0.310726 0.8090144
vt 0.310726 0.1909858
vt 0.1619399 0.5000002
vt 0.1619399 0.5000002
vt 0 0.5000002
vt 0.08097195 1
vt 0.1619399 0.5000002
vt 0.08097198 1.401407E-07
vt 0 0.5000002
vt 0.1619399 0.5000002
vt 0.310726 0.1909858
vt 0.08097198 1.401407E-07
vt 0.310726 0.8090144
vt 0.459514 0.4999999
vt 0.310726 0.1909858
vt 0.08097195 1
vt 0.540486 0.9999999
vt 0.310726 0.8090144
vt 0.9190281 0.5000002
vt 0.7702401 0.8090143
vt 1 1
vt 1 1.401407E-07
vt 0.7702401 0.1909856
vt 0.9190281 0.5000002
vt 0.310726 0.1909858
vt 0.540486 0
vt 0.08097198 1.401407E-07
vt 0.310726 0.8090144
vt 0.540486 0.9999999
vt 0.459514 0.4999999
vt 1 1
vt 0.7702401 0.8090143
vt 0.540486 0.9999999
vt 0.9190281 0.5000002
vt 0.7702401 0.1909856
vt 0.7702401 0.8090143
vt 1 1.401407E-07
vt 0.540486 0
vt 0.7702401 0.1909856
vt 0.310726 0.1909858
vt 0.459514 0.4999999
vt 0.540486 0
vt 0.540486 0.9999999
vt 0.6214539 0.4999998
vt 0.459514 0.4999999
vt 0.7702401 0.8090143
vt 0.6214539 0.4999998
vt 0.540486 0.9999999
vt 0.7702401 0.1909856
vt 0.6214539 0.4999998
vt 0.7702401 0.8090143
vt 0.540486 0
vt 0.6214539 0.4999998
vt 0.7702401 0.1909856
vt 0.459514 0.4999999
vt 0.6214539 0.4999998
vt 0.540486 0
usemtl Standard
f 3/3/3 2/2/2 1/1/1
f 6/6/6 5/5/5 4/4/4
f 9/9/9 8/8/8 7/7/7
f 12/12/12 11/11/11 10/10/10
f 15/15/15 14/14/14 13/13/13
f 18/18/18 17/17/17 16/16/16
f 21/21/21 20/20/20 19/19/19
f 24/24/24 23/23/23 22/22/22
f 27/27/27 26/26/26 25/25/25
f 30/30/30 29/29/29 28/28/28
f 33/33/33 32/32/32 31/31/31
f 36/36/36 35/35/35 34/34/34
f 39/39/39 38/38/38 37/37/37
f 42/42/42 41/41/41 40/40/40
f 45/45/45 44/44/44 43/43/43
f 48/48/48 47/47/47 46/46/46
f 51/51/51 50/50/50 49/49/49
f 54/54/54 53/53/53 52/52/52
f 57/57/57 56/56/56 55/55/55
f 60/60/60 59/59/59 58/58/58
