# Export of 
# from Aaro4130 OBJ Exporter v2.0
mtllib Cross.mtl
g Cross_0
v -0.5 -0.1875 0.125
v -0.1875 -0.1875 -0.125
v -0.5 -0.1875 -0.125
v -0.1875 -0.1875 0.125
v -0.5 0.1875 -0.125
v -0.5 -0.1875 0.125
v -0.5 -0.1875 -0.125
v -0.5 0.1875 0.125
v -0.5 0.1875 -0.125
v -0.1875 0.1875 0.125
v -0.5 0.1875 0.125
v -0.1875 0.1875 -0.125
v -0.1875 0.5 0.125
v -0.1875 0.1875 -0.125
v -0.1875 0.5 -0.125
v -0.1875 0.1875 0.125
v 0.1875 0.5 0.125
v -0.1875 0.5 -0.125
v 0.1875 0.5 -0.125
v -0.1875 0.5 0.125
v 0.1875 0.5 0.125
v 0.1875 0.1875 -0.125
v 0.1875 0.1875 0.125
v 0.1875 0.5 -0.125
v 0.5 0.1875 0.125
v 0.1875 0.1875 -0.125
v 0.5 0.1875 -0.125
v 0.1875 0.1875 0.125
v 0.5 0.1875 0.125
v 0.5 -0.1875 -0.125
v 0.5 -0.1875 0.125
v 0.5 0.1875 -0.125
v 0.5 -0.1875 0.125
v 0.1875 -0.1875 -0.125
v 0.1875 -0.1875 0.125
v 0.5 -0.1875 -0.125
v 0.1875 -0.5 -0.125
v 0.1875 -0.1875 0.125
v 0.1875 -0.1875 -0.125
v 0.1875 -0.5 0.125
v -0.1875 -0.5 0.125
v 0.1875 -0.5 -0.125
v -0.1875 -0.5 -0.125
v 0.1875 -0.5 0.125
v -0.1875 -0.1875 0.125
v -0.1875 -0.5 -0.125
v -0.1875 -0.1875 -0.125
v -0.1875 -0.5 0.125
v -0.5 -0.1875 -0.125
v -0.1875 -0.1875 -0.125
v -0.1875 0.1875 -0.125
v -0.5 0.1875 -0.125
v -0.1875 -0.5 -0.125
v 0.1875 -0.5 -0.125
v 0.1875 -0.1875 -0.125
v 0.1875 0.1875 -0.125
v 0.1875 0.5 -0.125
v -0.1875 0.5 -0.125
v 0.5 0.1875 -0.125
v 0.5 -0.1875 -0.125
v -0.1875 0.5 -0.125
v -0.1875 -0.1875 -0.125
v -0.1875 -0.5 -0.125
v -0.1875 0.1875 -0.125
v -0.5 0.1875 0.125
v -0.1875 0.1875 0.125
v -0.1875 -0.1875 0.125
v -0.5 -0.1875 0.125
v -0.1875 0.5 0.125
v 0.1875 0.5 0.125
v 0.1875 0.1875 0.125
v 0.1875 -0.1875 0.125
v 0.1875 -0.5 0.125
v -0.1875 -0.5 0.125
v 0.5 -0.1875 0.125
v 0.5 0.1875 0.125
v -0.1875 -0.5 0.125
v -0.1875 0.1875 0.125
v -0.1875 0.5 0.125
v -0.1875 -0.1875 0.125
vn 0 -0.5773503 0
vn 0 -0.5773503 0
vn 0 -0.5773503 0
vn 0 -0.5773503 0
vn -0.5773503 0 0
vn -0.5773503 0 0
vn -0.5773503 0 0
vn -0.5773503 0 0
vn 0 0.5773503 0
vn 0 0.5773503 0
vn 0 0.5773503 0
vn 0 0.5773503 0
vn -0.5773503 0 0
vn -0.5773503 0 0
vn -0.5773503 0 0
vn -0.5773503 0 0
vn 0 0.5773503 0
vn 0 0.5773503 0
vn 0 0.5773503 0
vn 0 0.5773503 0
vn 0.5773503 0 0
vn 0.5773503 0 0
vn 0.5773503 0 0
vn 0.5773503 0 0
vn 0 0.5773503 0
vn 0 0.5773503 0
vn 0 0.5773503 0
vn 0 0.5773503 0
vn 0.5773503 0 0
vn 0.5773503 0 0
vn 0.5773503 0 0
vn 0.5773503 0 0
vn 0 -0.5773503 0
vn 0 -0.5773503 0
vn 0 -0.5773503 0
vn 0 -0.5773503 0
vn 0.5773503 0 0
vn 0.5773503 0 0
vn 0.5773503 0 0
vn 0.5773503 0 0
vn 0 -0.5773503 0
vn 0 -0.5773503 0
vn 0 -0.5773503 0
vn 0 -0.5773503 0
vn -0.5773503 0 0
vn -0.5773503 0 0
vn -0.5773503 0 0
vn -0.5773503 0 0
vn 0 0 -0.5773503
vn 0 0 -0.5773503
vn 0 0 -0.5773503
vn 0 0 -0.5773503
vn 0 0 -0.5773503
vn 0 0 -0.5773503
vn 0 0 -0.5773503
vn 0 0 -0.5773503
vn 0 0 -0.5773503
vn 0 0 -0.5773503
vn 0 0 -0.5773503
vn 0 0 -0.5773503
vn 0 0 -0.5773503
vn 0 0 -0.5773503
vn 0 0 -0.5773503
vn 0 0 -0.5773503
vn 0 0 0.5773503
vn 0 0 0.5773503
vn 0 0 0.5773503
vn 0 0 0.5773503
vn 0 0 0.5773503
vn 0 0 0.5773503
vn 0 0 0.5773503
vn 0 0 0.5773503
vn 0 0 0.5773503
vn 0 0 0.5773503
vn 0 0 0.5773503
vn 0 0 0.5773503
vn 0 0 0.5773503
vn 0 0 0.5773503
vn 0 0 0.5773503
vn 0 0 0.5773503
vt 0.1349467 0.2084509
vt 0.3679878 0.022018
vt 0.1349467 0.022018
vt 0.3679878 0.2084509
vt 0.6476372 0.022018
vt 0.3679878 0.2084509
vt 0.3679878 0.022018
vt 0.6476372 0.2084509
vt 0.1349467 0.022018
vt 0.3679878 0.2084509
vt 0.1349467 0.2084509
vt 0.3679878 0.022018
vt 0.8806783 0.2084509
vt 0.6476372 0.022018
vt 0.8806783 0.02201795
vt 0.6476372 0.2084509
vt 0.6476372 0.2084509
vt 0.3679878 0.02201795
vt 0.6476372 0.02201795
vt 0.3679878 0.2084509
vt 0.8806783 0.2084509
vt 0.6476372 0.022018
vt 0.6476372 0.2084509
vt 0.8806783 0.02201795
vt 0.8806783 0.2084509
vt 0.6476372 0.022018
vt 0.8806783 0.022018
vt 0.6476372 0.2084509
vt 0.6476372 0.2084509
vt 0.3679878 0.022018
vt 0.3679878 0.2084509
vt 0.6476372 0.022018
vt 0.8806783 0.2084509
vt 0.6476372 0.022018
vt 0.6476372 0.2084509
vt 0.8806783 0.022018
vt 0.1349467 0.02201803
vt 0.3679878 0.2084509
vt 0.3679878 0.022018
vt 0.1349467 0.2084509
vt 0.3679878 0.2084509
vt 0.6476372 0.02201803
vt 0.3679878 0.02201803
vt 0.6476372 0.2084509
vt 0.3679878 0.2084509
vt 0.1349467 0.02201803
vt 0.3679878 0.022018
vt 0.1349467 0.2084509
vt 0.1286346 0.471822
vt 0.3644001 0.471822
vt 0.3644001 0.7547405
vt 0.1286346 0.7547405
vt 0.3644001 0.2360565
vt 0.6473187 0.2360565
vt 0.6473187 0.471822
vt 0.6473187 0.7547405
vt 0.6473187 0.9905059
vt 0.3644001 0.9905059
vt 0.8830841 0.7547405
vt 0.8830841 0.471822
vt 0.3644001 0.9905059
vt 0.3644001 0.471822
vt 0.3644001 0.2360565
vt 0.3644001 0.7547405
vt 0.1286346 0.7547405
vt 0.3644001 0.7547405
vt 0.3644001 0.471822
vt 0.1286346 0.471822
vt 0.3644001 0.9905059
vt 0.6473187 0.9905059
vt 0.6473187 0.7547405
vt 0.6473187 0.471822
vt 0.6473187 0.2360565
vt 0.3644001 0.2360565
vt 0.8830841 0.471822
vt 0.8830841 0.7547405
vt 0.3644001 0.2360565
vt 0.3644001 0.7547405
vt 0.3644001 0.9905059
vt 0.3644001 0.471822
usemtl Standard
f 3/3/3 2/2/2 1/1/1
f 2/2/2 4/4/4 1/1/1
f 7/7/7 6/6/6 5/5/5
f 6/6/6 8/8/8 5/5/5
f 11/11/11 10/10/10 9/9/9
f 10/10/10 12/12/12 9/9/9
f 15/15/15 14/14/14 13/13/13
f 14/14/14 16/16/16 13/13/13
f 19/19/19 18/18/18 17/17/17
f 18/18/18 20/20/20 17/17/17
f 23/23/23 22/22/22 21/21/21
f 22/22/22 24/24/24 21/21/21
f 27/27/27 26/26/26 25/25/25
f 26/26/26 28/28/28 25/25/25
f 31/31/31 30/30/30 29/29/29
f 30/30/30 32/32/32 29/29/29
f 35/35/35 34/34/34 33/33/33
f 34/34/34 36/36/36 33/33/33
f 39/39/39 38/38/38 37/37/37
f 38/38/38 40/40/40 37/37/37
f 43/43/43 42/42/42 41/41/41
f 42/42/42 44/44/44 41/41/41
f 47/47/47 46/46/46 45/45/45
f 46/46/46 48/48/48 45/45/45
f 51/51/51 50/50/50 49/49/49
f 49/49/49 52/52/52 51/51/51
f 55/55/55 54/54/54 53/53/53
f 53/53/53 56/56/56 55/55/55
f 53/53/53 57/57/57 56/56/56
f 53/53/53 58/58/58 57/57/57
f 55/55/55 56/56/56 59/59/59
f 59/59/59 60/60/60 55/55/55
f 63/63/63 62/62/62 61/61/61
f 62/62/62 64/64/64 61/61/61
f 67/67/67 66/66/66 65/65/65
f 65/65/65 68/68/68 67/67/67
f 71/71/71 70/70/70 69/69/69
f 69/69/69 72/72/72 71/71/71
f 69/69/69 73/73/73 72/72/72
f 69/69/69 74/74/74 73/73/73
f 71/71/71 72/72/72 75/75/75
f 75/75/75 76/76/76 71/71/71
f 79/79/79 78/78/78 77/77/77
f 78/78/78 80/80/80 77/77/77
