# Export of 
# from Aaro4130 OBJ Exporter v2.0
mtllib Icosphere.mtl
g Icosphere_0
v -7.095791E-10 2.483527E-09 -0.5
v -0.08122778 -0.2499976 -0.4253272
v 0.2126613 -0.1545057 -0.4253271
v 0.3618037 -0.2628627 -0.2236098
v 0.4253239 2.483527E-09 -0.262868
v 0.2126613 -0.1545057 -0.4253271
v -7.095791E-10 2.483527E-09 -0.5
v -0.2628649 2.483527E-09 -0.4253258
v -0.08122778 -0.2499976 -0.4253272
v -7.095791E-10 2.483527E-09 -0.5
v -0.08122778 0.2499976 -0.4253272
v -0.2628649 2.483527E-09 -0.4253258
v -7.095791E-10 2.483527E-09 -0.5
v 0.2126613 0.1545057 -0.4253271
v -0.08122778 0.2499976 -0.4253272
v 0.3618037 -0.2628627 -0.2236098
v 0.4755289 -0.1545063 7.095791E-10
v 0.4253239 2.483527E-09 -0.262868
v -0.138194 -0.4253246 -0.2236099
v -7.095791E-10 -0.5 7.095791E-10
v 0.1314344 -0.4045058 -0.2628688
v -0.4472131 2.483527E-09 -0.2236078
v -0.4755289 -0.1545063 7.095791E-10
v -0.3440947 -0.2499985 -0.2628681
v -0.138194 0.4253246 -0.2236099
v -0.2938928 0.4045084 7.095791E-10
v -0.3440947 0.2499985 -0.2628681
v 0.3618037 0.2628627 -0.2236098
v 0.2938928 0.4045084 7.095791E-10
v 0.1314344 0.4045058 -0.2628688
v 0.3618037 -0.2628627 -0.2236098
v 0.2938928 -0.4045084 7.095791E-10
v 0.4755289 -0.1545063 7.095791E-10
v -0.138194 -0.4253246 -0.2236099
v -0.2938928 -0.4045084 7.095791E-10
v -7.095791E-10 -0.5 7.095791E-10
v -0.4472131 2.483527E-09 -0.2236078
v -0.4755289 0.1545063 7.095791E-10
v -0.4755289 -0.1545063 7.095791E-10
v -0.138194 0.4253246 -0.2236099
v -7.095791E-10 0.5 7.095791E-10
v -0.2938928 0.4045084 7.095791E-10
v 0.3618037 0.2628627 -0.2236098
v 0.4755289 0.1545063 7.095791E-10
v 0.2938928 0.4045084 7.095791E-10
v 0.138194 -0.4253246 0.2236099
v 0.08122778 -0.2499976 0.4253272
v 0.3440947 -0.2499985 0.2628681
v -0.3618037 -0.2628627 0.2236098
v -0.2126613 -0.1545057 0.4253271
v -0.1314344 -0.4045058 0.2628688
v -0.3618037 0.2628627 0.2236098
v -0.2126613 0.1545057 0.4253271
v -0.4253239 2.483527E-09 0.262868
v 0.138194 0.4253246 0.2236099
v 0.08122778 0.2499976 0.4253272
v -0.1314344 0.4045058 0.2628688
v 0.4472131 2.483527E-09 0.2236078
v 0.2628649 2.483527E-09 0.4253258
v 0.3440947 0.2499985 0.2628681
v -0.08122778 -0.2499976 -0.4253272
v -0.138194 -0.4253246 -0.2236099
v 0.1314344 -0.4045058 -0.2628688
v -0.08122778 -0.2499976 -0.4253272
v 0.1314344 -0.4045058 -0.2628688
v 0.2126613 -0.1545057 -0.4253271
v 0.2126613 -0.1545057 -0.4253271
v 0.1314344 -0.4045058 -0.2628688
v 0.3618037 -0.2628627 -0.2236098
v 0.4253239 2.483527E-09 -0.262868
v 0.3618037 0.2628627 -0.2236098
v 0.2126613 0.1545057 -0.4253271
v 0.4253239 2.483527E-09 -0.262868
v 0.2126613 0.1545057 -0.4253271
v 0.2126613 -0.1545057 -0.4253271
v 0.2126613 -0.1545057 -0.4253271
v 0.2126613 0.1545057 -0.4253271
v -7.095791E-10 2.483527E-09 -0.5
v -0.2628649 2.483527E-09 -0.4253258
v -0.4472131 2.483527E-09 -0.2236078
v -0.3440947 -0.2499985 -0.2628681
v -0.2628649 2.483527E-09 -0.4253258
v -0.3440947 -0.2499985 -0.2628681
v -0.08122778 -0.2499976 -0.4253272
v -0.08122778 -0.2499976 -0.4253272
v -0.3440947 -0.2499985 -0.2628681
v -0.138194 -0.4253246 -0.2236099
v -0.08122778 0.2499976 -0.4253272
v -0.138194 0.4253246 -0.2236099
v -0.3440947 0.2499985 -0.2628681
v -0.08122778 0.2499976 -0.4253272
v -0.3440947 0.2499985 -0.2628681
v -0.2628649 2.483527E-09 -0.4253258
v -0.2628649 2.483527E-09 -0.4253258
v -0.3440947 0.2499985 -0.2628681
v -0.4472131 2.483527E-09 -0.2236078
v 0.2126613 0.1545057 -0.4253271
v 0.3618037 0.2628627 -0.2236098
v 0.1314344 0.4045058 -0.2628688
v 0.2126613 0.1545057 -0.4253271
v 0.1314344 0.4045058 -0.2628688
v -0.08122778 0.2499976 -0.4253272
v -0.08122778 0.2499976 -0.4253272
v 0.1314344 0.4045058 -0.2628688
v -0.138194 0.4253246 -0.2236099
v 0.4755289 -0.1545063 7.095791E-10
v 0.4472131 2.483527E-09 0.2236078
v 0.4755289 0.1545063 7.095791E-10
v 0.4755289 -0.1545063 7.095791E-10
v 0.4755289 0.1545063 7.095791E-10
v 0.4253239 2.483527E-09 -0.262868
v 0.4253239 2.483527E-09 -0.262868
v 0.4755289 0.1545063 7.095791E-10
v 0.3618037 0.2628627 -0.2236098
v -7.095791E-10 -0.5 7.095791E-10
v 0.138194 -0.4253246 0.2236099
v 0.2938928 -0.4045084 7.095791E-10
v -7.095791E-10 -0.5 7.095791E-10
v 0.2938928 -0.4045084 7.095791E-10
v 0.1314344 -0.4045058 -0.2628688
v 0.1314344 -0.4045058 -0.2628688
v 0.2938928 -0.4045084 7.095791E-10
v 0.3618037 -0.2628627 -0.2236098
v -0.4755289 -0.1545063 7.095791E-10
v -0.3618037 -0.2628627 0.2236098
v -0.2938928 -0.4045084 7.095791E-10
v -0.4755289 -0.1545063 7.095791E-10
v -0.2938928 -0.4045084 7.095791E-10
v -0.3440947 -0.2499985 -0.2628681
v -0.3440947 -0.2499985 -0.2628681
v -0.2938928 -0.4045084 7.095791E-10
v -0.138194 -0.4253246 -0.2236099
v -0.2938928 0.4045084 7.095791E-10
v -0.3618037 0.2628627 0.2236098
v -0.4755289 0.1545063 7.095791E-10
v -0.2938928 0.4045084 7.095791E-10
v -0.4755289 0.1545063 7.095791E-10
v -0.3440947 0.2499985 -0.2628681
v -0.3440947 0.2499985 -0.2628681
v -0.4755289 0.1545063 7.095791E-10
v -0.4472131 2.483527E-09 -0.2236078
v 0.2938928 0.4045084 7.095791E-10
v 0.138194 0.4253246 0.2236099
v -7.095791E-10 0.5 7.095791E-10
v 0.2938928 0.4045084 7.095791E-10
v -7.095791E-10 0.5 7.095791E-10
v 0.1314344 0.4045058 -0.2628688
v 0.1314344 0.4045058 -0.2628688
v -7.095791E-10 0.5 7.095791E-10
v -0.138194 0.4253246 -0.2236099
v 0.2938928 -0.4045084 7.095791E-10
v 0.138194 -0.4253246 0.2236099
v 0.3440947 -0.2499985 0.2628681
v 0.2938928 -0.4045084 7.095791E-10
v 0.3440947 -0.2499985 0.2628681
v 0.4755289 -0.1545063 7.095791E-10
v 0.4755289 -0.1545063 7.095791E-10
v 0.3440947 -0.2499985 0.2628681
v 0.4472131 2.483527E-09 0.2236078
v -0.2938928 -0.4045084 7.095791E-10
v -0.3618037 -0.2628627 0.2236098
v -0.1314344 -0.4045058 0.2628688
v -0.2938928 -0.4045084 7.095791E-10
v -0.1314344 -0.4045058 0.2628688
v -7.095791E-10 -0.5 7.095791E-10
v -7.095791E-10 -0.5 7.095791E-10
v -0.1314344 -0.4045058 0.2628688
v 0.138194 -0.4253246 0.2236099
v -0.4755289 0.1545063 7.095791E-10
v -0.3618037 0.2628627 0.2236098
v -0.4253239 2.483527E-09 0.262868
v -0.4755289 0.1545063 7.095791E-10
v -0.4253239 2.483527E-09 0.262868
v -0.4755289 -0.1545063 7.095791E-10
v -0.4755289 -0.1545063 7.095791E-10
v -0.4253239 2.483527E-09 0.262868
v -0.3618037 -0.2628627 0.2236098
v -7.095791E-10 0.5 7.095791E-10
v 0.138194 0.4253246 0.2236099
v -0.1314344 0.4045058 0.2628688
v -7.095791E-10 0.5 7.095791E-10
v -0.1314344 0.4045058 0.2628688
v -0.2938928 0.4045084 7.095791E-10
v -0.2938928 0.4045084 7.095791E-10
v -0.1314344 0.4045058 0.2628688
v -0.3618037 0.2628627 0.2236098
v 0.4755289 0.1545063 7.095791E-10
v 0.4472131 2.483527E-09 0.2236078
v 0.3440947 0.2499985 0.2628681
v 0.4755289 0.1545063 7.095791E-10
v 0.3440947 0.2499985 0.2628681
v 0.2938928 0.4045084 7.095791E-10
v 0.2938928 0.4045084 7.095791E-10
v 0.3440947 0.2499985 0.2628681
v 0.138194 0.4253246 0.2236099
v 0.08122778 -0.2499976 0.4253272
v -7.095791E-10 2.483527E-09 0.5
v 0.2628649 2.483527E-09 0.4253258
v 0.08122778 -0.2499976 0.4253272
v 0.2628649 2.483527E-09 0.4253258
v 0.3440947 -0.2499985 0.2628681
v 0.3440947 -0.2499985 0.2628681
v 0.2628649 2.483527E-09 0.4253258
v 0.4472131 2.483527E-09 0.2236078
v -0.2126613 -0.1545057 0.4253271
v -7.095791E-10 2.483527E-09 0.5
v 0.08122778 -0.2499976 0.4253272
v -0.2126613 -0.1545057 0.4253271
v 0.08122778 -0.2499976 0.4253272
v -0.1314344 -0.4045058 0.2628688
v -0.1314344 -0.4045058 0.2628688
v 0.08122778 -0.2499976 0.4253272
v 0.138194 -0.4253246 0.2236099
v -0.2126613 0.1545057 0.4253271
v -7.095791E-10 2.483527E-09 0.5
v -0.2126613 -0.1545057 0.4253271
v -0.2126613 0.1545057 0.4253271
v -0.2126613 -0.1545057 0.4253271
v -0.4253239 2.483527E-09 0.262868
v -0.4253239 2.483527E-09 0.262868
v -0.2126613 -0.1545057 0.4253271
v -0.3618037 -0.2628627 0.2236098
v 0.08122778 0.2499976 0.4253272
v -7.095791E-10 2.483527E-09 0.5
v -0.2126613 0.1545057 0.4253271
v 0.08122778 0.2499976 0.4253272
v -0.2126613 0.1545057 0.4253271
v -0.1314344 0.4045058 0.2628688
v -0.1314344 0.4045058 0.2628688
v -0.2126613 0.1545057 0.4253271
v -0.3618037 0.2628627 0.2236098
v 0.2628649 2.483527E-09 0.4253258
v -7.095791E-10 2.483527E-09 0.5
v 0.08122778 0.2499976 0.4253272
v 0.2628649 2.483527E-09 0.4253258
v 0.08122778 0.2499976 0.4253272
v 0.3440947 0.2499985 0.2628681
v 0.3440947 0.2499985 0.2628681
v 0.08122778 0.2499976 0.4253272
v 0.138194 0.4253246 0.2236099
vn 0.05910958 -0.1819172 -0.5447435
vn 0.05910958 -0.1819172 -0.5447435
vn 0.05910958 -0.1819172 -0.5447435
vn 0.4042745 -0.1547482 -0.382032
vn 0.4042745 -0.1547482 -0.382032
vn 0.4042745 -0.1547482 -0.382032
vn -0.1547495 -0.1124312 -0.5447432
vn -0.1547495 -0.1124312 -0.5447432
vn -0.1547495 -0.1124312 -0.5447432
vn -0.1547495 0.1124312 -0.5447432
vn -0.1547495 0.1124312 -0.5447432
vn -0.1547495 0.1124312 -0.5447432
vn 0.05910958 0.1819172 -0.5447435
vn 0.05910958 0.1819172 -0.5447435
vn 0.05910958 0.1819172 -0.5447435
vn 0.5224957 -0.154748 -0.1907476
vn 0.5224957 -0.154748 -0.1907476
vn 0.5224957 -0.154748 -0.1907476
vn 0.01428746 -0.5447423 -0.1907486
vn 0.01428746 -0.5447423 -0.1907486
vn 0.01428746 -0.5447423 -0.1907486
vn -0.5136669 -0.18192 -0.1907477
vn -0.5136669 -0.18192 -0.1907477
vn -0.5136669 -0.18192 -0.1907477
vn -0.3317466 0.4323103 -0.1907493
vn -0.3317466 0.4323103 -0.1907493
vn -0.3317466 0.4323103 -0.1907493
vn 0.3086376 0.4491003 -0.1907488
vn 0.3086376 0.4491003 -0.1907488
vn 0.3086376 0.4491003 -0.1907488
vn 0.4633865 -0.3366682 -0.07253095
vn 0.4633865 -0.3366682 -0.07253095
vn 0.4633865 -0.3366682 -0.07253095
vn -0.1769976 -0.5447424 -0.07253192
vn -0.1769976 -0.5447424 -0.07253192
vn -0.1769976 -0.5447424 -0.07253192
vn -0.5727761 0 -0.07253154
vn -0.5727761 0 -0.07253154
vn -0.5727761 0 -0.07253154
vn -0.1769976 0.5447424 -0.07253192
vn -0.1769976 0.5447424 -0.07253192
vn -0.1769976 0.5447424 -0.07253192
vn 0.4633865 0.3366682 -0.07253095
vn 0.4633865 0.3366682 -0.07253095
vn 0.4633865 0.3366682 -0.07253095
vn 0.2361051 -0.3628214 0.3820319
vn 0.2361051 -0.3628214 0.3820319
vn 0.2361051 -0.3628214 0.3820319
vn -0.2721051 -0.3366657 0.3820319
vn -0.2721051 -0.3366657 0.3820319
vn -0.2721051 -0.3366657 0.3820319
vn -0.4042745 0.1547482 0.382032
vn -0.4042745 0.1547482 0.382032
vn -0.4042745 0.1547482 0.382032
vn 0.02224553 0.4323078 0.3820319
vn 0.02224553 0.4323078 0.3820319
vn 0.02224553 0.4323078 0.3820319
vn 0.4180259 0.1124309 0.3820301
vn 0.4180259 0.1124309 0.3820301
vn 0.4180259 0.1124309 0.3820301
vn -0.02224567 -0.4323078 -0.3820319
vn -0.02224567 -0.4323078 -0.3820319
vn -0.02224567 -0.4323078 -0.3820319
vn 0.1083076 -0.3333305 -0.4587958
vn 0.1083076 -0.3333305 -0.4587958
vn 0.1083076 -0.3333305 -0.4587958
vn 0.2721051 -0.3366657 -0.3820319
vn 0.2721051 -0.3366657 -0.3820319
vn 0.2721051 -0.3366657 -0.3820319
vn 0.4042745 0.1547483 -0.382032
vn 0.4042745 0.1547483 -0.382032
vn 0.4042745 0.1547483 -0.382032
vn 0.3504866 0 -0.4587946
vn 0.3504866 0 -0.4587946
vn 0.3504866 0 -0.4587946
vn 0.1912788 0 -0.5447438
vn 0.1912788 0 -0.5447438
vn 0.1912788 0 -0.5447438
vn -0.4180259 -0.112431 -0.3820301
vn -0.4180259 -0.112431 -0.3820301
vn -0.4180259 -0.112431 -0.3820301
vn -0.283548 -0.2060106 -0.4587957
vn -0.283548 -0.2060106 -0.4587957
vn -0.283548 -0.2060106 -0.4587957
vn -0.2361051 -0.3628214 -0.3820318
vn -0.2361051 -0.3628214 -0.3820318
vn -0.2361051 -0.3628214 -0.3820318
vn -0.2361051 0.3628214 -0.3820318
vn -0.2361051 0.3628214 -0.3820318
vn -0.2361051 0.3628214 -0.3820318
vn -0.283548 0.2060107 -0.4587957
vn -0.283548 0.2060107 -0.4587957
vn -0.283548 0.2060107 -0.4587957
vn -0.4180259 0.112431 -0.3820301
vn -0.4180259 0.112431 -0.3820301
vn -0.4180259 0.112431 -0.3820301
vn 0.2721051 0.3366657 -0.3820319
vn 0.2721051 0.3366657 -0.3820319
vn 0.2721051 0.3366657 -0.3820319
vn 0.1083076 0.3333305 -0.4587958
vn 0.1083076 0.3333305 -0.4587958
vn 0.1083076 0.3333305 -0.4587958
vn -0.02224567 0.4323078 -0.3820319
vn -0.02224567 0.4323078 -0.3820319
vn -0.02224567 0.4323078 -0.3820319
vn 0.5727761 0 0.07253154
vn 0.5727761 0 0.07253154
vn 0.5727761 0 0.07253154
vn 0.5670999 0 -0.1083101
vn 0.5670999 0 -0.1083101
vn 0.5670999 0 -0.1083101
vn 0.5224957 0.154748 -0.1907476
vn 0.5224957 0.154748 -0.1907476
vn 0.5224957 0.154748 -0.1907476
vn 0.1769976 -0.5447424 0.07253178
vn 0.1769976 -0.5447424 0.07253178
vn 0.1769976 -0.5447424 0.07253178
vn 0.1752436 -0.5393441 -0.1083094
vn 0.1752436 -0.5393441 -0.1083094
vn 0.1752436 -0.5393441 -0.1083094
vn 0.3086376 -0.4491003 -0.1907488
vn 0.3086376 -0.4491003 -0.1907488
vn 0.3086376 -0.4491003 -0.1907488
vn -0.4633865 -0.3366682 0.07253095
vn -0.4633865 -0.3366682 0.07253095
vn -0.4633865 -0.3366682 0.07253095
vn -0.4587946 -0.3333319 -0.108308
vn -0.4587946 -0.3333319 -0.108308
vn -0.4587946 -0.3333319 -0.108308
vn -0.3317465 -0.4323103 -0.1907493
vn -0.3317465 -0.4323103 -0.1907493
vn -0.3317465 -0.4323103 -0.1907493
vn -0.4633865 0.3366682 0.07253095
vn -0.4633865 0.3366682 0.07253095
vn -0.4633865 0.3366682 0.07253095
vn -0.4587946 0.3333319 -0.1083081
vn -0.4587946 0.3333319 -0.1083081
vn -0.4587946 0.3333319 -0.1083081
vn -0.5136669 0.18192 -0.1907477
vn -0.5136669 0.18192 -0.1907477
vn -0.5136669 0.18192 -0.1907477
vn 0.1769976 0.5447424 0.07253178
vn 0.1769976 0.5447424 0.07253178
vn 0.1769976 0.5447424 0.07253178
vn 0.1752436 0.5393441 -0.1083094
vn 0.1752436 0.5393441 -0.1083094
vn 0.1752436 0.5393441 -0.1083094
vn 0.01428746 0.5447423 -0.1907486
vn 0.01428746 0.5447423 -0.1907486
vn 0.01428746 0.5447423 -0.1907486
vn 0.3317466 -0.4323103 0.1907493
vn 0.3317466 -0.4323103 0.1907493
vn 0.3317466 -0.4323103 0.1907493
vn 0.4587946 -0.3333319 0.1083081
vn 0.4587946 -0.3333319 0.1083081
vn 0.4587946 -0.3333319 0.1083081
vn 0.5136669 -0.18192 0.1907477
vn 0.5136669 -0.18192 0.1907477
vn 0.5136669 -0.18192 0.1907477
vn -0.3086376 -0.4491003 0.1907488
vn -0.3086376 -0.4491003 0.1907488
vn -0.3086376 -0.4491003 0.1907488
vn -0.1752436 -0.5393441 0.1083094
vn -0.1752436 -0.5393441 0.1083094
vn -0.1752436 -0.5393441 0.1083094
vn -0.01428746 -0.5447422 0.1907487
vn -0.01428746 -0.5447422 0.1907487
vn -0.01428746 -0.5447422 0.1907487
vn -0.5224957 0.154748 0.1907476
vn -0.5224957 0.154748 0.1907476
vn -0.5224957 0.154748 0.1907476
vn -0.5670999 0 0.1083101
vn -0.5670999 0 0.1083101
vn -0.5670999 0 0.1083101
vn -0.5224957 -0.154748 0.1907476
vn -0.5224957 -0.154748 0.1907476
vn -0.5224957 -0.154748 0.1907476
vn -0.01428746 0.5447422 0.1907487
vn -0.01428746 0.5447422 0.1907487
vn -0.01428746 0.5447422 0.1907487
vn -0.1752436 0.5393441 0.1083094
vn -0.1752436 0.5393441 0.1083094
vn -0.1752436 0.5393441 0.1083094
vn -0.3086376 0.4491003 0.1907488
vn -0.3086376 0.4491003 0.1907488
vn -0.3086376 0.4491003 0.1907488
vn 0.5136669 0.18192 0.1907477
vn 0.5136669 0.18192 0.1907477
vn 0.5136669 0.18192 0.1907477
vn 0.4587946 0.3333319 0.108308
vn 0.4587946 0.3333319 0.108308
vn 0.4587946 0.3333319 0.108308
vn 0.3317466 0.4323103 0.1907493
vn 0.3317466 0.4323103 0.1907493
vn 0.3317466 0.4323103 0.1907493
vn 0.1547495 -0.1124312 0.5447432
vn 0.1547495 -0.1124312 0.5447432
vn 0.1547495 -0.1124312 0.5447432
vn 0.283548 -0.2060107 0.4587956
vn 0.283548 -0.2060107 0.4587956
vn 0.283548 -0.2060107 0.4587956
vn 0.4180259 -0.1124309 0.3820301
vn 0.4180259 -0.1124309 0.3820301
vn 0.4180259 -0.1124309 0.3820301
vn -0.05910958 -0.1819172 0.5447435
vn -0.05910958 -0.1819172 0.5447435
vn -0.05910958 -0.1819172 0.5447435
vn -0.1083074 -0.3333305 0.4587958
vn -0.1083074 -0.3333305 0.4587958
vn -0.1083074 -0.3333305 0.4587958
vn 0.02224553 -0.4323078 0.3820319
vn 0.02224553 -0.4323078 0.3820319
vn 0.02224553 -0.4323078 0.3820319
vn -0.1912788 0 0.5447438
vn -0.1912788 0 0.5447438
vn -0.1912788 0 0.5447438
vn -0.3504866 0 0.4587946
vn -0.3504866 0 0.4587946
vn -0.3504866 0 0.4587946
vn -0.4042745 -0.1547483 0.382032
vn -0.4042745 -0.1547483 0.382032
vn -0.4042745 -0.1547483 0.382032
vn -0.05910958 0.1819172 0.5447435
vn -0.05910958 0.1819172 0.5447435
vn -0.05910958 0.1819172 0.5447435
vn -0.1083074 0.3333305 0.4587958
vn -0.1083074 0.3333305 0.4587958
vn -0.1083074 0.3333305 0.4587958
vn -0.2721051 0.3366657 0.3820319
vn -0.2721051 0.3366657 0.3820319
vn -0.2721051 0.3366657 0.3820319
vn 0.1547495 0.1124312 0.5447432
vn 0.1547495 0.1124312 0.5447432
vn 0.1547495 0.1124312 0.5447432
vn 0.283548 0.2060107 0.4587957
vn 0.283548 0.2060107 0.4587957
vn 0.283548 0.2060107 0.4587957
vn 0.2361051 0.3628214 0.3820318
vn 0.2361051 0.3628214 0.3820318
vn 0.2361051 0.3628214 0.3820318
vt 0.4732977 0
vt 0.826087 0.1762061
vt 1 0.1762062
vt 0.1304355 0.3524143
vt 0.2173911 0.32379
vt 0.1304355 0.1762062
vt 0.4732977 0
vt 0.6521734 0.1762077
vt 0.826087 0.1762061
vt 0.4732977 0
vt 0.4782598 0.1762061
vt 0.6521734 0.1762077
vt 0.4732977 0
vt 0.3043468 0.1762062
vt 0.4782598 0.1762061
vt 0.1304355 0.3524143
vt 0.1739135 0.5
vt 0.2173911 0.32379
vt 0.826087 0.3524141
vt 0.8695645 0.5
vt 0.9130436 0.3237894
vt 0.6521734 0.3524157
vt 0.6956509 0.5
vt 0.7391296 0.3237899
vt 0.4782598 0.3524141
vt 0.5217388 0.5
vt 0.5652172 0.3237899
vt 0.3043468 0.3524143
vt 0.3478257 0.5
vt 0.3913032 0.3237894
vt 0.1304355 0.3524143
vt 0.08695652 0.5
vt 0.1739135 0.5
vt 0.826087 0.3524141
vt 0.782608 0.5
vt 0.8695645 0.5
vt 0.6521734 0.3524157
vt 0.6086958 0.5
vt 0.6956509 0.5
vt 0.4782598 0.3524141
vt 0.4347823 0.5
vt 0.5217388 0.5
vt 0.3043468 0.3524143
vt 0.2608688 0.5
vt 0.3478257 0.5
vt 0.04347754 0.6475859
vt 0.04347754 0.823794
vt 0.1304349 0.6762101
vt 0.7391291 0.6475857
vt 0.7391291 0.8237939
vt 0.8260855 0.6762106
vt 0.5652177 0.6475857
vt 0.5652177 0.8237939
vt 0.6521734 0.67621
vt 0.3913047 0.6475859
vt 0.3913047 0.823794
vt 0.4782613 0.6762106
vt 0.2173911 0.6475843
vt 0.2173911 0.8237923
vt 0.3043473 0.6762101
vt 0.826087 0.1762061
vt 0.826087 0.3524141
vt 0.9130436 0.3237894
vt 0.826087 0.1762061
vt 0.9130436 0.3237894
vt 1 0.1762062
vt 0.1304355 0.1762062
vt 0.04347901 0.3237894
vt 0.1304355 0.3524143
vt 0.2173911 0.32379
vt 0.3043468 0.3524143
vt 0.3043468 0.1762062
vt 0.2173911 0.32379
vt 0.3043468 0.1762062
vt 0.1304355 0.1762062
vt 0.1304355 0.1762062
vt 0.3043468 0.1762062
vt 0.4732977 0
vt 0.6521734 0.1762077
vt 0.6521734 0.3524157
vt 0.7391296 0.3237899
vt 0.6521734 0.1762077
vt 0.7391296 0.3237899
vt 0.826087 0.1762061
vt 0.826087 0.1762061
vt 0.7391296 0.3237899
vt 0.826087 0.3524141
vt 0.4782598 0.1762061
vt 0.4782598 0.3524141
vt 0.5652172 0.3237899
vt 0.4782598 0.1762061
vt 0.5652172 0.3237899
vt 0.6521734 0.1762077
vt 0.6521734 0.1762077
vt 0.5652172 0.3237899
vt 0.6521734 0.3524157
vt 0.3043468 0.1762062
vt 0.3043468 0.3524143
vt 0.3913032 0.3237894
vt 0.3043468 0.1762062
vt 0.3913032 0.3237894
vt 0.4782598 0.1762061
vt 0.4782598 0.1762061
vt 0.3913032 0.3237894
vt 0.4782598 0.3524141
vt 0.1739135 0.5
vt 0.2173911 0.6475843
vt 0.2608688 0.5
vt 0.1739135 0.5
vt 0.2608688 0.5
vt 0.2173911 0.32379
vt 0.2173911 0.32379
vt 0.2608688 0.5
vt 0.3043468 0.3524143
vt 0 0.5
vt 0.04347754 0.6475859
vt 0.08695652 0.5
vt 0 0.5
vt 0.08695652 0.5
vt 0.04347901 0.3237894
vt 0.04347901 0.3237894
vt 0.08695652 0.5
vt 0.1304355 0.3524143
vt 0.6956509 0.5
vt 0.7391291 0.6475857
vt 0.782608 0.5
vt 0.6956509 0.5
vt 0.782608 0.5
vt 0.7391296 0.3237899
vt 0.7391296 0.3237899
vt 0.782608 0.5
vt 0.826087 0.3524141
vt 0.5217388 0.5
vt 0.5652177 0.6475857
vt 0.6086958 0.5
vt 0.5217388 0.5
vt 0.6086958 0.5
vt 0.5652172 0.3237899
vt 0.5652172 0.3237899
vt 0.6086958 0.5
vt 0.6521734 0.3524157
vt 0.3478257 0.5
vt 0.3913047 0.6475859
vt 0.4347823 0.5
vt 0.3478257 0.5
vt 0.4347823 0.5
vt 0.3913032 0.3237894
vt 0.3913032 0.3237894
vt 0.4347823 0.5
vt 0.4782598 0.3524141
vt 0.08695652 0.5
vt 0.04347754 0.6475859
vt 0.1304349 0.6762101
vt 0.08695652 0.5
vt 0.1304349 0.6762101
vt 0.1739135 0.5
vt 0.1739135 0.5
vt 0.1304349 0.6762101
vt 0.2173911 0.6475843
vt 0.782608 0.5
vt 0.7391291 0.6475857
vt 0.8260855 0.6762106
vt 0.782608 0.5
vt 0.8260855 0.6762106
vt 0.8695645 0.5
vt 0.8695645 0.5
vt 0.8260855 0.6762106
vt 0.9130421 0.6475859
vt 0.6086958 0.5
vt 0.5652177 0.6475857
vt 0.6521734 0.67621
vt 0.6086958 0.5
vt 0.6521734 0.67621
vt 0.6956509 0.5
vt 0.6956509 0.5
vt 0.6521734 0.67621
vt 0.7391291 0.6475857
vt 0.4347823 0.5
vt 0.3913047 0.6475859
vt 0.4782613 0.6762106
vt 0.4347823 0.5
vt 0.4782613 0.6762106
vt 0.5217388 0.5
vt 0.5217388 0.5
vt 0.4782613 0.6762106
vt 0.5652177 0.6475857
vt 0.2608688 0.5
vt 0.2173911 0.6475843
vt 0.3043473 0.6762101
vt 0.2608688 0.5
vt 0.3043473 0.6762101
vt 0.3478257 0.5
vt 0.3478257 0.5
vt 0.3043473 0.6762101
vt 0.3913047 0.6475859
vt 0.04347754 0.823794
vt 0.4732977 1
vt 0.2173911 0.8237923
vt 0.04347754 0.823794
vt 0.2173911 0.8237923
vt 0.1304349 0.6762101
vt 0.1304349 0.6762101
vt 0.2173911 0.8237923
vt 0.2173911 0.6475843
vt 0.7391291 0.8237939
vt 0.4732977 1
vt 0.9130421 0.823794
vt 0.7391291 0.8237939
vt 0.9130421 0.823794
vt 0.8260855 0.6762106
vt 0.8260855 0.6762106
vt 0.9130421 0.823794
vt 0.9130421 0.6475859
vt 0.5652177 0.8237939
vt 0.4732977 1
vt 0.7391291 0.8237939
vt 0.5652177 0.8237939
vt 0.7391291 0.8237939
vt 0.6521734 0.67621
vt 0.6521734 0.67621
vt 0.7391291 0.8237939
vt 0.7391291 0.6475857
vt 0.3913047 0.823794
vt 0.4732977 1
vt 0.5652177 0.8237939
vt 0.3913047 0.823794
vt 0.5652177 0.8237939
vt 0.4782613 0.6762106
vt 0.4782613 0.6762106
vt 0.5652177 0.8237939
vt 0.5652177 0.6475857
vt 0.2173911 0.8237923
vt 0.4732977 1
vt 0.3913047 0.823794
vt 0.2173911 0.8237923
vt 0.3913047 0.823794
vt 0.3043473 0.6762101
vt 0.3043473 0.6762101
vt 0.3913047 0.823794
vt 0.3913047 0.6475859
usemtl Standard
f 3/3/3 2/2/2 1/1/1
f 6/6/6 5/5/5 4/4/4
f 9/9/9 8/8/8 7/7/7
f 12/12/12 11/11/11 10/10/10
f 15/15/15 14/14/14 13/13/13
f 18/18/18 17/17/17 16/16/16
f 21/21/21 20/20/20 19/19/19
f 24/24/24 23/23/23 22/22/22
f 27/27/27 26/26/26 25/25/25
f 30/30/30 29/29/29 28/28/28
f 33/33/33 32/32/32 31/31/31
f 36/36/36 35/35/35 34/34/34
f 39/39/39 38/38/38 37/37/37
f 42/42/42 41/41/41 40/40/40
f 45/45/45 44/44/44 43/43/43
f 48/48/48 47/47/47 46/46/46
f 51/51/51 50/50/50 49/49/49
f 54/54/54 53/53/53 52/52/52
f 57/57/57 56/56/56 55/55/55
f 60/60/60 59/59/59 58/58/58
f 63/63/63 62/62/62 61/61/61
f 66/66/66 65/65/65 64/64/64
f 69/69/69 68/68/68 67/67/67
f 72/72/72 71/71/71 70/70/70
f 75/75/75 74/74/74 73/73/73
f 78/78/78 77/77/77 76/76/76
f 81/81/81 80/80/80 79/79/79
f 84/84/84 83/83/83 82/82/82
f 87/87/87 86/86/86 85/85/85
f 90/90/90 89/89/89 88/88/88
f 93/93/93 92/92/92 91/91/91
f 96/96/96 95/95/95 94/94/94
f 99/99/99 98/98/98 97/97/97
f 102/102/102 101/101/101 100/100/100
f 105/105/105 104/104/104 103/103/103
f 108/108/108 107/107/107 106/106/106
f 111/111/111 110/110/110 109/109/109
f 114/114/114 113/113/113 112/112/112
f 117/117/117 116/116/116 115/115/115
f 120/120/120 119/119/119 118/118/118
f 123/123/123 122/122/122 121/121/121
f 126/126/126 125/125/125 124/124/124
f 129/129/129 128/128/128 127/127/127
f 132/132/132 131/131/131 130/130/130
f 135/135/135 134/134/134 133/133/133
f 138/138/138 137/137/137 136/136/136
f 141/141/141 140/140/140 139/139/139
f 144/144/144 143/143/143 142/142/142
f 147/147/147 146/146/146 145/145/145
f 150/150/150 149/149/149 148/148/148
f 153/153/153 152/152/152 151/151/151
f 156/156/156 155/155/155 154/154/154
f 159/159/159 158/158/158 157/157/157
f 162/162/162 161/161/161 160/160/160
f 165/165/165 164/164/164 163/163/163
f 168/168/168 167/167/167 166/166/166
f 171/171/171 170/170/170 169/169/169
f 174/174/174 173/173/173 172/172/172
f 177/177/177 176/176/176 175/175/175
f 180/180/180 179/179/179 178/178/178
f 183/183/183 182/182/182 181/181/181
f 186/186/186 185/185/185 184/184/184
f 189/189/189 188/188/188 187/187/187
f 192/192/192 191/191/191 190/190/190
f 195/195/195 194/194/194 193/193/193
f 198/198/198 197/197/197 196/196/196
f 201/201/201 200/200/200 199/199/199
f 204/204/204 203/203/203 202/202/202
f 207/207/207 206/206/206 205/205/205
f 210/210/210 209/209/209 208/208/208
f 213/213/213 212/212/212 211/211/211
f 216/216/216 215/215/215 214/214/214
f 219/219/219 218/218/218 217/217/217
f 222/222/222 221/221/221 220/220/220
f 225/225/225 224/224/224 223/223/223
f 228/228/228 227/227/227 226/226/226
f 231/231/231 230/230/230 229/229/229
f 234/234/234 233/233/233 232/232/232
f 237/237/237 236/236/236 235/235/235
f 240/240/240 239/239/239 238/238/238
