# Export of 
# from Aaro4130 OBJ Exporter v2.0
mtllib PrismOctagon.mtl
g PrismOctagon_0
v -2.607703E-08 0.5000001 0.5
v 0.3535534 -0.5 0.3535534
v -2.607703E-08 -0.5 0.5000001
v 0.3535534 0.5 0.3535534
v 0.3535534 0.5 0.3535534
v 0.4999999 -0.5 2.980232E-08
v 0.3535534 -0.5 0.3535534
v 0.4999999 0.5 -5.960464E-08
v 0.4999999 0.5 -5.960464E-08
v 0.3535534 -0.5 -0.3535534
v 0.4999999 -0.5 2.980232E-08
v 0.3535534 0.5 -0.3535534
v 0.3535534 0.5 -0.3535534
v -6.978842E-08 -0.5000001 -0.5
v 0.3535534 -0.5 -0.3535534
v -6.978842E-08 0.5 -0.5000001
v -6.978842E-08 0.5 -0.5000001
v -0.3535535 -0.5 -0.3535533
v -6.978842E-08 -0.5000001 -0.5
v -0.3535535 0.5 -0.3535534
v -0.3535535 0.5 -0.3535534
v -0.5 -0.5 2.980232E-08
v -0.3535535 -0.5 -0.3535533
v -0.5 0.5 -2.980232E-08
v 0.3535534 -0.5 -0.3535534
v -6.978842E-08 -0.5000001 -0.5
v -0.3535535 -0.5 -0.3535533
v 0.4999999 -0.5 2.980232E-08
v -0.5 -0.5 2.980232E-08
v 0.3535534 -0.5 0.3535534
v -0.3535535 -0.5 0.3535534
v -2.607703E-08 -0.5 0.5000001
v -0.3535535 0.5 0.3535533
v -2.607703E-08 -0.5 0.5000001
v -0.3535535 -0.5 0.3535534
v -2.607703E-08 0.5000001 0.5
v -0.5 0.5 -2.980232E-08
v -0.3535535 -0.5 0.3535534
v -0.5 -0.5 2.980232E-08
v -0.3535535 0.5 0.3535533
v -0.3535535 0.5 -0.3535534
v -6.978842E-08 0.5 -0.5000001
v 0.3535534 0.5 -0.3535534
v 0.4999999 0.5 -5.960464E-08
v -0.5 0.5 -2.980232E-08
v 0.3535534 0.5 0.3535534
v -0.3535535 0.5 0.3535533
v -2.607703E-08 0.5000001 0.5
vn 0.2209424 0 0.5334021
vn 0.2209424 0 0.5334021
vn 0.2209424 0 0.5334021
vn 0.2209424 0 0.5334021
vn 0.5334021 0 0.2209423
vn 0.5334021 0 0.2209423
vn 0.5334021 0 0.2209423
vn 0.5334021 0 0.2209423
vn 0.5334021 0 -0.2209424
vn 0.5334021 0 -0.2209424
vn 0.5334021 0 -0.2209424
vn 0.5334021 0 -0.2209424
vn 0.2209423 0 -0.5334021
vn 0.2209423 0 -0.5334021
vn 0.2209423 0 -0.5334021
vn 0.2209423 0 -0.5334021
vn -0.2209424 0 -0.5334021
vn -0.2209424 0 -0.5334021
vn -0.2209424 0 -0.5334021
vn -0.2209424 0 -0.5334021
vn -0.5334021 0 -0.2209423
vn -0.5334021 0 -0.2209423
vn -0.5334021 0 -0.2209423
vn -0.5334021 0 -0.2209423
vn 0 -0.5773503 0
vn 0 -0.5773503 0
vn 0 -0.5773503 0
vn 0 -0.5773503 0
vn 0 -0.5773503 0
vn 0 -0.5773503 0
vn 0 -0.5773503 0
vn 0 -0.5773503 0
vn -0.2209424 0 0.5334021
vn -0.2209424 0 0.5334021
vn -0.2209424 0 0.5334021
vn -0.2209424 0 0.5334021
vn -0.5334021 0 0.2209423
vn -0.5334021 0 0.2209423
vn -0.5334021 0 0.2209423
vn -0.5334021 0 0.2209423
vn 0 0.5773503 0
vn 0 0.5773503 0
vn 0 0.5773503 0
vn 0 0.5773503 0
vn 0 0.5773503 0
vn 0 0.5773503 0
vn 0 0.5773503 0
vn 0 0.5773503 0
vt 0 1
vt 0.9999999 0
vt 0 0
vt 0.9999999 1
vt 1 0.9999996
vt 0 1.685873E-07
vt 0 0.9999999
vt 1 0
vt 1 0.9999998
vt 0 1.685874E-07
vt 0 0.9999999
vt 1 0
vt 0.9999999 1
vt 0 0
vt 0.9999999 5.960464E-08
vt 0 1
vt 0.9999999 1
vt 0 5.960464E-08
vt 0.9999999 0
vt 0 1
vt 1 0
vt 0 0.9999999
vt 0 1.685874E-07
vt 1 0.9999999
vt 0.8535533 0.1464466
vt 0.4999999 0
vt 0.1464465 0.1464467
vt 1 0.5
vt 0 0.5
vt 0.8535533 0.8535534
vt 0.1464465 0.8535533
vt 0.5 1
vt 0 1
vt 0.9999999 0
vt 0 0
vt 0.9999999 1
vt 1 0
vt 0 0.9999999
vt 0 0
vt 1 0.9999999
vt 0.1464465 0.1464467
vt 0.4999999 0
vt 0.8535533 0.1464466
vt 1 0.5
vt 0 0.5000001
vt 0.8535533 0.8535534
vt 0.1464465 0.8535534
vt 0.5 1
usemtl Standard
f 3/3/3 2/2/2 1/1/1
f 2/2/2 4/4/4 1/1/1
f 7/7/7 6/6/6 5/5/5
f 6/6/6 8/8/8 5/5/5
f 11/11/11 10/10/10 9/9/9
f 10/10/10 12/12/12 9/9/9
f 15/15/15 14/14/14 13/13/13
f 14/14/14 16/16/16 13/13/13
f 19/19/19 18/18/18 17/17/17
f 18/18/18 20/20/20 17/17/17
f 23/23/23 22/22/22 21/21/21
f 22/22/22 24/24/24 21/21/21
f 27/27/27 26/26/26 25/25/25
f 25/25/25 28/28/28 27/27/27
f 28/28/28 29/29/29 27/27/27
f 28/28/28 30/30/30 29/29/29
f 30/30/30 31/31/31 29/29/29
f 30/30/30 32/32/32 31/31/31
f 35/35/35 34/34/34 33/33/33
f 34/34/34 36/36/36 33/33/33
f 39/39/39 38/38/38 37/37/37
f 38/38/38 40/40/40 37/37/37
f 43/43/43 42/42/42 41/41/41
f 41/41/41 44/44/44 43/43/43
f 41/41/41 45/45/45 44/44/44
f 45/45/45 46/46/46 44/44/44
f 45/45/45 47/47/47 46/46/46
f 47/47/47 48/48/48 46/46/46
