# Export of 
# from Aaro4130 OBJ Exporter v2.0
mtllib PyramidCorner.mtl
g PyramidCorner_0
v -0.5 -0.5 0.5
v -0.5 0.5 0.5
v 0.5 -0.5 0.5
v -0.5 0.5 0.5
v -0.5 -0.5 -0.5
v 0.5 -0.5 -0.5
v 0.5 -0.5 0.5
v -0.5 -0.5 -0.5
v -0.5 -0.5 0.5
v 0.5 -0.5 -0.5
v 0.5 -0.5 -0.5
v 0.5 -0.5 0.5
v -0.5 0.5 0.5
v -0.5 -0.5 0.5
v -0.5 -0.5 -0.5
v -0.5 0.5 0.5
vn 0 0 0.5773503
vn 0 0 0.5773503
vn 0 0 0.5773503
vn 0 0.4082483 -0.4082483
vn 0 0.4082483 -0.4082483
vn 0 0.4082483 -0.4082483
vn 0 -0.5773503 0
vn 0 -0.5773503 0
vn 0 -0.5773503 0
vn 0 -0.5773503 0
vn 0.4082483 0.4082483 0
vn 0.4082483 0.4082483 0
vn 0.4082483 0.4082483 0
vn -0.5773503 0 0
vn -0.5773503 0 0
vn -0.5773503 0 0
vt 1 0.9999999
vt 0.9999999 0
vt 0 1
vt 1 0.9999999
vt 0.9999999 0
vt 0 1
vt 0 1.192093E-07
vt 1 0.9999999
vt 0.9999999 0
vt 1.192093E-07 1
vt 0 1
vt 1 1
vt 1 0
vt 0 1
vt 1 1
vt 1 0
usemtl Standard
f 3/3/3 2/2/2 1/1/1
f 6/6/6 5/5/5 4/4/4
f 9/9/9 8/8/8 7/7/7
f 8/8/8 10/10/10 7/7/7
f 13/13/13 12/12/12 11/11/11
f 16/16/16 15/15/15 14/14/14
