# Export of 
# from Aaro4130 OBJ Exporter v2.0
mtllib CylinderHalf.mtl
g CylinderHalf_0
v 0.4999998 -0.5000002 1.271559E-07
v 0.4755282 0.4999999 0.1545085
v 0.5 0.4999999 -7.946625E-09
v 0.4755281 -0.5000002 0.1545087
v 0.4045084 0.5 0.2938927
v 0.4045083 -0.5000002 0.2938928
v 0.2938926 0.5 0.4045085
v 0.2938924 -0.5 0.4045087
v 0.1545084 0.5000001 0.4755283
v 0.1545082 -0.5 0.4755284
v -8.940697E-08 0.5000001 0.5
v -2.384186E-07 -0.5 0.5000002
v -0.1545086 0.5000001 0.4755283
v -0.1545088 -0.5 0.4755284
v -0.2938927 0.5000001 0.4045085
v -0.2938928 -0.4999999 0.4045087
v -0.4045086 0.5000001 0.2938926
v -0.4045087 -0.4999999 0.2938927
v -0.4755283 0.5000001 0.1545084
v -0.4755285 -0.5 0.1545085
v -0.5000001 0.5000001 -1.569583E-07
v -0.5000003 -0.5 -2.185569E-08
v 0.4999998 -0.5000002 1.271559E-07
v -0.5000003 -0.5 -2.185569E-08
v -0.4755285 -0.5 0.1545085
v 0.4755281 -0.5000002 0.1545087
v -0.4045087 -0.4999999 0.2938927
v 0.4045083 -0.5000002 0.2938928
v -0.2938928 -0.4999999 0.4045087
v 0.2938924 -0.5 0.4045087
v 0.1545082 -0.5 0.4755284
v -0.1545088 -0.5 0.4755284
v -2.384186E-07 -0.5 0.5000002
v 0.4999998 -0.5000002 1.271559E-07
v -0.5000001 0.5000001 -1.569583E-07
v -0.5000003 -0.5 -2.185569E-08
v 0.5 0.4999999 -7.946625E-09
v -0.4755283 0.5000001 0.1545084
v -0.5000001 0.5000001 -1.569583E-07
v 0.5 0.4999999 -7.946625E-09
v 0.4755282 0.4999999 0.1545085
v -0.4045086 0.5000001 0.2938926
v 0.4045084 0.5 0.2938927
v -0.2938927 0.5000001 0.4045085
v 0.2938926 0.5 0.4045085
v -0.1545086 0.5000001 0.4755283
v 0.1545084 0.5000001 0.4755283
v -8.940697E-08 0.5000001 0.5
vn 0.5702421 0 0.09031755
vn 0.5490927 0 0.1784111
vn 0.5702421 0 0.09031755
vn 0.5490927 0 0.1784111
vn 0.4670862 0 0.3393579
vn 0.4670863 0 0.3393579
vn 0.3393579 0 0.4670862
vn 0.339358 0 0.4670861
vn 0.1784109 0 0.5490927
vn 0.1784109 0 0.5490927
vn 0 0 0.5773503
vn 0 0 0.5773503
vn -0.1784111 0 0.5490927
vn -0.1784111 0 0.5490927
vn -0.339358 0 0.4670861
vn -0.339358 0 0.4670861
vn -0.4670863 0 0.3393579
vn -0.4670863 0 0.3393579
vn -0.5490927 0 0.1784111
vn -0.5490927 0 0.1784111
vn -0.5702421 0 0.09031768
vn -0.5702421 0 0.09031768
vn 0 -0.5773503 0
vn 0 -0.5773503 0
vn 0 -0.5773503 0
vn 0 -0.5773503 0
vn 0 -0.5773503 0
vn 0 -0.5773503 0
vn 0 -0.5773503 0
vn 0 -0.5773503 0
vn 0 -0.5773503 0
vn 0 -0.5773503 0
vn 0 -0.5773503 0
vn 0 0 -0.5773503
vn 0 0 -0.5773503
vn 0 0 -0.5773503
vn 0 0 -0.5773503
vn 0 0.5773503 0
vn 0 0.5773503 0
vn 0 0.5773503 0
vn 0 0.5773503 0
vn 0 0.5773503 0
vn 0 0.5773503 0
vn 0 0.5773503 0
vn 0 0.5773503 0
vn 0 0.5773503 0
vn 0 0.5773503 0
vn 0 0.5773503 0
vt 0.7814966 0.0001832456
vt 0.7033651 0.4996338
vt 0.7814965 0.4996338
vt 0.7033653 0.0001832124
vt 0.6252338 0.4996338
vt 0.6252338 0.0001831792
vt 0.5471025 0.4996338
vt 0.5471027 0.0001832622
vt 0.468971 0.4996338
vt 0.4689713 0.0001832124
vt 0.3908398 0.4996336
vt 0.3908401 0.0001831792
vt 0.3127084 0.4996336
vt 0.3127086 0.0001831294
vt 0.2345771 0.4996336
vt 0.2345772 0.000183146
vt 0.1564457 0.4996336
vt 0.1564458 0.0001830961
vt 0.07831442 0.4996336
vt 0.07831442 0.0001830629
vt 0.0001830463 0.4996336
vt 0.0001830463 0.0001830463
vt 0.9994506 0.4999999
vt 0.5 0.5
vt 0.5122225 0.5771695
vt 0.9872282 0.5771694
vt 0.5476934 0.646785
vt 0.9517574 0.6467848
vt 0.6029406 0.7020322
vt 0.8965103 0.7020321
vt 0.8268946 0.737503
vt 0.6725558 0.7375029
vt 0.7497253 0.7497254
vt 0.0001831127 0.9994507
vt 0.4996338 0.4999999
vt 0.0001830463 0.5
vt 0.4996339 0.9994507
vt 0.5122224 0.9226476
vt 0.5 0.9998169
vt 0.9994507 0.9998168
vt 0.9872282 0.9226474
vt 0.5476932 0.8530321
vt 0.9517574 0.8530319
vt 0.6029403 0.7977848
vt 0.89651 0.7977847
vt 0.6725557 0.762314
vt 0.8268945 0.7623138
vt 0.7497251 0.7500915
usemtl Standard
f 3/3/3 2/2/2 1/1/1
f 2/2/2 4/4/4 1/1/1
f 2/2/2 5/5/5 4/4/4
f 5/5/5 6/6/6 4/4/4
f 5/5/5 7/7/7 6/6/6
f 7/7/7 8/8/8 6/6/6
f 7/7/7 9/9/9 8/8/8
f 9/9/9 10/10/10 8/8/8
f 9/9/9 11/11/11 10/10/10
f 11/11/11 12/12/12 10/10/10
f 11/11/11 13/13/13 12/12/12
f 13/13/13 14/14/14 12/12/12
f 13/13/13 15/15/15 14/14/14
f 15/15/15 16/16/16 14/14/14
f 15/15/15 17/17/17 16/16/16
f 17/17/17 18/18/18 16/16/16
f 17/17/17 19/19/19 18/18/18
f 19/19/19 20/20/20 18/18/18
f 19/19/19 21/21/21 20/20/20
f 21/21/21 22/22/22 20/20/20
f 25/25/25 24/24/24 23/23/23
f 23/23/23 26/26/26 25/25/25
f 26/26/26 27/27/27 25/25/25
f 26/26/26 28/28/28 27/27/27
f 28/28/28 29/29/29 27/27/27
f 28/28/28 30/30/30 29/29/29
f 30/30/30 31/31/31 29/29/29
f 31/31/31 32/32/32 29/29/29
f 31/31/31 33/33/33 32/32/32
f 36/36/36 35/35/35 34/34/34
f 35/35/35 37/37/37 34/34/34
f 40/40/40 39/39/39 38/38/38
f 38/38/38 41/41/41 40/40/40
f 38/38/38 42/42/42 41/41/41
f 42/42/42 43/43/43 41/41/41
f 42/42/42 44/44/44 43/43/43
f 44/44/44 45/45/45 43/43/43
f 44/44/44 46/46/46 45/45/45
f 46/46/46 47/47/47 45/45/45
f 46/46/46 48/48/48 47/47/47
