# Export of 
# from Aaro4130 OBJ Exporter v2.0
mtllib Star.mtl
g Star_0
v -0.5 0.1666667 0
v 1.641636E-09 4.442657E-08 0.09316237
v -0.1929825 -0.07894734 0
v -2.735253E-08 -0.2333333 0
v 0.3333333 -0.5 0
v 0.5 0.1666666 0
v 1.641636E-09 4.442657E-08 0.09316237
v 0.1111111 0.1666667 0
v -0.5 0.1666667 0
v -0.111111 0.1666667 0
v -0.3333334 -0.5 0
v 1.641636E-09 4.442657E-08 0.09316237
v -2.735253E-08 -0.2333333 0
v 0.1929825 -0.0789474 0
v 0.5 0.1666666 0
v 5.861255E-08 0.5 0
v 1.641636E-09 4.442657E-08 0.09316237
v -0.111111 0.1666667 0
v -0.1929825 -0.07894734 0
v -0.3333334 -0.5 0
v 0.3333333 -0.5 0
v 1.641636E-09 4.442657E-08 0.09316237
v 0.1929825 -0.0789474 0
v 0.1111111 0.1666667 0
v 5.861255E-08 0.5 0
v -0.5 0.1666667 0
v -0.1929825 -0.07894734 0
v 1.641636E-09 4.442657E-08 -0.09316237
v -2.735253E-08 -0.2333333 0
v 0.3333333 -0.5 0
v 0.5 0.1666666 0
v 0.1111111 0.1666667 0
v 1.641636E-09 4.442657E-08 -0.09316237
v -0.111111 0.1666667 0
v -0.5 0.1666667 0
v -0.3333334 -0.5 0
v -2.735253E-08 -0.2333333 0
v 1.641636E-09 4.442657E-08 -0.09316237
v 0.1929825 -0.0789474 0
v 0.5 0.1666666 0
v 5.861255E-08 0.5 0
v -0.111111 0.1666667 0
v 1.641636E-09 4.442657E-08 -0.09316237
v -0.1929825 -0.07894734 0
v -0.3333334 -0.5 0
v 0.3333333 -0.5 0
v 0.1929825 -0.0789474 0
v 1.641636E-09 4.442657E-08 -0.09316237
v 0.1111111 0.1666667 0
v 5.861255E-08 0.5 0
vn -0.164195 -0.2052437 0.5140509
vn -0.164195 -0.2052437 0.5140509
vn -0.164195 -0.2052437 0.5140509
vn -0.1641949 -0.2052436 0.514051
vn -0.1641949 -0.2052436 0.514051
vn 0 0.2817016 0.5039618
vn 0 0.2817016 0.5039618
vn 0 0.2817016 0.5039618
vn 0 0.2817017 0.5039617
vn 0 0.2817017 0.5039617
vn 0.1641949 -0.2052437 0.5140509
vn 0.1641949 -0.2052437 0.5140509
vn 0.1641949 -0.2052437 0.5140509
vn 0.1641949 -0.2052437 0.514051
vn 0.1641949 -0.2052437 0.514051
vn -0.2780483 0.09268278 0.4974257
vn -0.2780483 0.09268278 0.4974257
vn -0.2780483 0.09268278 0.4974257
vn -0.2780482 0.09268278 0.4974258
vn -0.2780482 0.09268278 0.4974258
vn 0.2780482 0.09268269 0.4974258
vn 0.2780482 0.09268269 0.4974258
vn 0.2780482 0.09268269 0.4974258
vn 0.2780483 0.09268272 0.4974258
vn 0.2780483 0.09268272 0.4974258
vn -0.164195 -0.2052437 -0.5140509
vn -0.164195 -0.2052437 -0.5140509
vn -0.164195 -0.2052437 -0.5140509
vn -0.1641949 -0.2052436 -0.514051
vn -0.1641949 -0.2052436 -0.514051
vn 0 0.2817016 -0.5039618
vn 0 0.2817016 -0.5039618
vn 0 0.2817016 -0.5039618
vn 0 0.2817017 -0.5039617
vn 0 0.2817017 -0.5039617
vn 0.1641949 -0.2052437 -0.5140509
vn 0.1641949 -0.2052437 -0.5140509
vn 0.1641949 -0.2052437 -0.5140509
vn 0.1641949 -0.2052437 -0.514051
vn 0.1641949 -0.2052437 -0.514051
vn -0.2780483 0.09268278 -0.4974257
vn -0.2780483 0.09268278 -0.4974257
vn -0.2780483 0.09268278 -0.4974257
vn -0.2780482 0.09268278 -0.4974258
vn -0.2780482 0.09268278 -0.4974258
vn 0.2780482 0.09268269 -0.4974258
vn 0.2780482 0.09268269 -0.4974258
vn 0.2780482 0.09268269 -0.4974258
vn 0.2780483 0.09268272 -0.4974258
vn 0.2780483 0.09268272 -0.4974258
vt 0.02052799 0.6598655
vt 0.5 0.5000414
vt 0.3149406 0.4243353
vt 0.5 0.2762878
vt 0.8196479 0.02056932
vt 0.9794721 0.6598653
vt 0.5 0.5000414
vt 0.6065493 0.6598655
vt 0.02052799 0.6598655
vt 0.3934507 0.6598655
vt 0.180352 0.02056932
vt 0.5 0.5000414
vt 0.5 0.2762878
vt 0.6850594 0.4243352
vt 0.9794721 0.6598653
vt 0.5000001 0.9795135
vt 0.5 0.5000414
vt 0.3934507 0.6598655
vt 0.3149406 0.4243353
vt 0.180352 0.02056932
vt 0.8196479 0.02056932
vt 0.5 0.5000414
vt 0.6850594 0.4243352
vt 0.6065493 0.6598655
vt 0.5000001 0.9795135
vt 0.02052799 0.6598655
vt 0.3149406 0.4243353
vt 0.5 0.5000414
vt 0.5 0.2762878
vt 0.8196479 0.02056932
vt 0.9794721 0.6598653
vt 0.6065493 0.6598655
vt 0.5 0.5000414
vt 0.3934507 0.6598655
vt 0.02052799 0.6598655
vt 0.180352 0.02056932
vt 0.5 0.2762878
vt 0.5 0.5000414
vt 0.6850594 0.4243352
vt 0.9794721 0.6598653
vt 0.5000001 0.9795135
vt 0.3934507 0.6598655
vt 0.5 0.5000414
vt 0.3149406 0.4243353
vt 0.180352 0.02056932
vt 0.8196479 0.02056932
vt 0.6850594 0.4243352
vt 0.5 0.5000414
vt 0.6065493 0.6598655
vt 0.5000001 0.9795135
usemtl Standard
f 3/3/3 2/2/2 1/1/1
f 5/5/5 2/2/2 4/4/4
f 8/8/8 7/7/7 6/6/6
f 10/10/10 9/9/9 7/7/7
f 13/13/13 12/12/12 11/11/11
f 15/15/15 12/12/12 14/14/14
f 18/18/18 17/17/17 16/16/16
f 20/20/20 17/17/17 19/19/19
f 23/23/23 22/22/22 21/21/21
f 25/25/25 22/22/22 24/24/24
f 28/28/28 27/27/27 26/26/26
f 28/28/28 30/30/30 29/29/29
f 33/33/33 32/32/32 31/31/31
f 35/35/35 34/34/34 33/33/33
f 38/38/38 37/37/37 36/36/36
f 38/38/38 40/40/40 39/39/39
f 43/43/43 42/42/42 41/41/41
f 43/43/43 45/45/45 44/44/44
f 48/48/48 47/47/47 46/46/46
f 48/48/48 50/50/50 49/49/49
